<?xml version="1.0" encoding="UTF-8"?>
<svg version="1.1" xmlns="http://www.w3.org/2000/svg" width="490" height="135">
<path d="M0 0 C1.08470078 -0.01591187 2.16940155 -0.03182373 3.28697205 -0.04821777 C4.45369949 -0.04841919 5.62042694 -0.04862061 6.82250977 -0.04882812 C8.02577408 -0.05644165 9.22903839 -0.06405518 10.46876526 -0.07189941 C13.01317266 -0.08270391 15.55762442 -0.08555213 18.10205078 -0.08105469 C21.99595054 -0.08008261 25.88787904 -0.12170006 29.78149414 -0.16601562 C32.25349524 -0.17122268 34.72550319 -0.17391082 37.19750977 -0.17382812 C38.36221298 -0.19022339 39.5269162 -0.20661865 40.72691345 -0.22351074 C48.73919434 -0.15497424 48.73919434 -0.15497424 52.72509766 2.58203125 C57.34645899 9.6661278 56.91087438 16.60884184 56.88891602 24.79492188 C56.9050293 25.98859375 56.92114258 27.18226562 56.93774414 28.41210938 C56.94144332 35.1002345 56.68179571 40.43347886 53.57641602 46.41992188 C50.48786281 49.36114419 48.28588976 49.80873521 44.0769043 49.87158203 C42.42466354 49.9051329 42.42466354 49.9051329 40.73904419 49.93936157 C39.55358002 49.9458371 38.36811584 49.95231262 37.14672852 49.95898438 C35.92363983 49.97134125 34.70055115 49.98369812 33.44039917 49.99642944 C30.85313708 50.01599945 28.26580048 50.02722843 25.6784668 50.03076172 C21.72261243 50.04484641 17.76991624 50.11218168 13.81469727 50.18164062 C11.3003884 50.19403901 8.78606143 50.20325866 6.27172852 50.20898438 C4.49960495 50.24906113 4.49960495 50.24906113 2.69168091 50.28994751 C-5.15785887 50.22508236 -5.15785887 50.22508236 -8.51799011 48.08761597 C-11.82135429 44.6553951 -13.11287799 41.42283444 -13.18031311 36.57125854 C-13.15875656 35.87936432 -13.13720001 35.18747009 -13.11499023 34.47460938 C-13.11361557 33.74170685 -13.11224091 33.00880432 -13.11082458 32.25369263 C-13.1018197 30.71569098 -13.07834796 29.17771158 -13.04101562 27.64013672 C-12.98605316 25.29360603 -12.97948853 22.95062475 -12.98022461 20.60351562 C-12.96548133 19.10218303 -12.94799728 17.60087431 -12.92749023 16.09960938 C-12.92415176 15.40366669 -12.92081329 14.707724 -12.91737366 13.99069214 C-12.79083162 9.64205387 -12.10410951 6.86321095 -9.42358398 3.41992188 C-6.2836618 0.55824053 -4.2139275 0.03722342 0 0 Z M-5.20449829 10.28442383 C-6.77651008 13.03814994 -6.81133356 14.97708067 -6.82202148 18.13867188 C-6.82588867 19.23566406 -6.82975586 20.33265625 -6.83374023 21.46289062 C-6.82213867 22.60371094 -6.81053711 23.74453125 -6.79858398 24.91992188 C-6.81018555 26.06074219 -6.82178711 27.2015625 -6.83374023 28.37695312 C-6.82987305 29.47394531 -6.82600586 30.5709375 -6.82202148 31.70117188 C-6.8169458 33.20260742 -6.8169458 33.20260742 -6.81176758 34.734375 C-6.35394035 37.90173318 -5.62132153 39.11903298 -3.42358398 41.41992188 C-1.13766833 42.02396421 -1.13766833 42.02396421 1.45922852 41.9375 C2.94592041 41.95641296 2.94592041 41.95641296 4.46264648 41.97570801 C6.0658374 41.96356262 6.0658374 41.96356262 7.70141602 41.95117188 C9.34907959 41.95691223 9.34907959 41.95691223 11.0300293 41.96276855 C13.35344356 41.96549169 15.67688827 41.95810256 18.00024414 41.94140625 C21.56278639 41.92000376 25.12331173 41.94119586 28.68579102 41.96679688 C30.94100381 41.96415367 33.19621535 41.95902885 35.45141602 41.95117188 C36.52020996 41.9592688 37.58900391 41.96736572 38.69018555 41.97570801 C40.17687744 41.95679504 40.17687744 41.95679504 41.69360352 41.9375 C43.00240479 41.93272644 43.00240479 41.93272644 44.33764648 41.92785645 C46.7312207 41.60151856 46.7312207 41.60151856 48.35733032 39.55541992 C49.92934211 36.80169381 49.96416559 34.86276308 49.97485352 31.70117188 C49.9787207 30.60417969 49.98258789 29.5071875 49.98657227 28.37695312 C49.9749707 27.23613281 49.96336914 26.0953125 49.95141602 24.91992188 C49.96301758 23.77910156 49.97461914 22.63828125 49.98657227 21.46289062 C49.98077148 19.81740234 49.98077148 19.81740234 49.97485352 18.13867188 C49.97146973 17.13771484 49.96808594 16.13675781 49.96459961 15.10546875 C49.50677238 11.93811057 48.77415356 10.72081077 46.57641602 8.41992188 C44.29050036 7.81587954 44.29050036 7.81587954 41.69360352 7.90234375 C40.20691162 7.88343079 40.20691162 7.88343079 38.69018555 7.86413574 C37.08699463 7.87628113 37.08699463 7.87628113 35.45141602 7.88867188 C34.35297363 7.88484497 33.25453125 7.88101807 32.12280273 7.8770752 C29.79938847 7.87435206 27.47594376 7.88174119 25.15258789 7.8984375 C21.59004565 7.91983999 18.02952031 7.89864789 14.46704102 7.87304688 C12.21182822 7.87569008 9.95661668 7.8808149 7.70141602 7.88867188 C6.63262207 7.88057495 5.56382812 7.87247803 4.46264648 7.86413574 C3.47151855 7.87674438 2.48039063 7.88935303 1.45922852 7.90234375 C0.15042725 7.90711731 0.15042725 7.90711731 -1.18481445 7.9119873 C-3.57838866 8.23832519 -3.57838866 8.23832519 -5.20449829 10.28442383 Z " fill="#444444" transform="translate(245.423583984375,40.580078125)"/>
<path d="M0 0 C3.45126668 1.27981945 6.36628064 2.79518261 9.4375 4.8125 C22.81653441 12.94329506 38.50277939 16.73138513 54 14 C58.74617999 12.55468721 62.87282988 10.75144675 67 8 C70.13671875 7.8046875 70.13671875 7.8046875 73.6875 7.875 C74.86699219 7.89304687 76.04648438 7.91109375 77.26171875 7.9296875 C78.61716797 7.96449219 78.61716797 7.96449219 80 8 C79.2554196 12.50586281 77.80196556 15.34895396 75 19 C74.34 19 73.68 19 73 19 C73 19.66 73 20.32 73 21 C61.01305132 31.5568355 46.7430616 33.8271388 31.30664062 33.17480469 C18.70430537 32.21975896 7.27129504 27.40051283 -4 22 C-2.81034913 14.63428929 -1.51922091 7.30518993 0 0 Z " fill="#227DB7" transform="translate(75,98)"/>
<path d="M0 0 C1.62111443 0.00033989 1.62111443 0.00033989 3.27497864 0.00068665 C4.43035629 0.0161705 5.58573395 0.03165436 6.77612305 0.04760742 C8.56339058 0.05397469 8.56339058 0.05397469 10.38676453 0.06047058 C14.18735476 0.07724524 17.98741218 0.11489659 21.7878418 0.15307617 C24.36661017 0.16812452 26.94538687 0.18181266 29.52416992 0.1940918 C35.84140859 0.2271449 42.15833712 0.27733299 48.4753418 0.34057617 C44.6003418 7.21557617 44.6003418 7.21557617 43.4753418 8.34057617 C42.05943202 8.44720199 40.6383779 8.48676057 39.21850586 8.49829102 C37.86139496 8.51368423 37.86139496 8.51368423 36.47686768 8.52938843 C35.49152039 8.53668976 34.5061731 8.54399109 33.4909668 8.55151367 C31.42064649 8.57958939 29.35033409 8.6082539 27.2800293 8.63745117 C24.00366494 8.678688 20.72744724 8.71555922 17.45092773 8.74194336 C14.29729313 8.76956505 11.14433912 8.81544761 7.9909668 8.86401367 C7.01371643 8.86726654 6.03646606 8.87051941 5.02960205 8.87387085 C0.0588388 8.96363817 -3.52984189 9.04106639 -7.5246582 12.34057617 C-11.11960865 16.63454476 -12.77902653 20.73429829 -12.5246582 26.34057617 C-11.63770062 31.10502975 -10.46280819 34.42530789 -6.9621582 37.84057617 C-3.0668438 40.23769273 -0.48900792 40.5881208 4.1003418 40.90307617 C5.28885742 40.98686523 6.47737305 41.0706543 7.7019043 41.15698242 C9.07475586 41.24786133 9.07475586 41.24786133 10.4753418 41.34057617 C10.75120117 40.59420898 11.02706055 39.8478418 11.3112793 39.07885742 C12.88692784 35.37238215 15.07237835 32.56560606 17.4753418 29.34057617 C16.46213867 29.37151367 16.46213867 29.37151367 15.4284668 29.40307617 C14.53643555 29.38245117 13.6444043 29.36182617 12.7253418 29.34057617 C11.84362305 29.34057617 10.9619043 29.34057617 10.0534668 29.34057617 C7.4753418 28.34057617 7.4753418 28.34057617 3.4753418 20.34057617 C13.3753418 20.34057617 23.2753418 20.34057617 33.4753418 20.34057617 C31.95813126 24.13360252 30.89712166 26.40949327 28.5769043 29.55541992 C28.01487305 30.3243457 27.4528418 31.09327148 26.8737793 31.88549805 C26.28854492 32.67504883 25.70331055 33.46459961 25.1003418 34.27807617 C23.9456985 35.84895807 22.79203119 37.42055789 21.6394043 38.99291992 C20.80481689 40.10570313 20.80481689 40.10570313 19.95336914 41.2409668 C18.28980434 43.49876206 18.28980434 43.49876206 16.6784668 46.86791992 C14.14342971 49.71309453 13.56372289 49.76888627 9.9206543 50.06713867 C8.14689568 50.06448731 6.37294933 50.02952305 4.6003418 49.96557617 C3.71475586 49.97202148 2.82916992 49.9784668 1.91674805 49.98510742 C-4.73541507 49.87605557 -8.47181208 48.25643561 -13.3527832 43.59448242 C-13.82200195 43.03631836 -14.2912207 42.4781543 -14.7746582 41.90307617 C-15.25418945 41.34749023 -15.7337207 40.7919043 -16.2277832 40.21948242 C-20.543689 33.9666189 -21.14545318 25.99320091 -20.16137695 18.61791992 C-18.34019668 11.38906326 -14.35630063 6.00990583 -8.25032043 1.75614929 C-5.20186576 0.17293386 -3.40907532 -0.02395135 0 0 Z " fill="#444444" transform="translate(325.524658203125,40.659423828125)"/>
<path d="M0 0 C0.72822464 0.0028299 1.45644928 0.00565979 2.20674133 0.00857544 C4.52992262 0.01975993 6.85271672 0.04486084 9.17578125 0.0703125 C10.75194755 0.08034456 12.3281199 0.08947002 13.90429688 0.09765625 C17.76577392 0.11969354 21.62696196 0.15421109 25.48828125 0.1953125 C25.48828125 2.8353125 25.48828125 5.4753125 25.48828125 8.1953125 C24.58996582 8.22036865 23.69165039 8.2454248 22.76611328 8.27124023 C19.43753256 8.36629943 16.10913131 8.46553671 12.78076172 8.56762695 C11.33940505 8.61097481 9.89799707 8.65265002 8.45654297 8.69262695 C6.38623584 8.75033338 4.31618693 8.81402621 2.24609375 8.87890625 C0.99973145 8.91556396 -0.24663086 8.95222168 -1.53076172 8.98999023 C-4.43808817 8.99820729 -4.43808817 8.99820729 -6.51171875 10.1953125 C-7.52616297 13.60753398 -7.46993234 15.81634879 -6.51171875 19.1953125 C-5.460448 19.21718628 -5.460448 19.21718628 -4.38793945 19.23950195 C-1.19948866 19.31416737 1.98793638 19.41076725 5.17578125 19.5078125 C6.27857422 19.53037109 7.38136719 19.55292969 8.51757812 19.57617188 C9.58427734 19.61162109 10.65097656 19.64707031 11.75 19.68359375 C13.218927 19.72286987 13.218927 19.72286987 14.7175293 19.76293945 C18.97337358 20.42705966 21.63794366 22.10680596 24.2734375 25.48046875 C26.64800774 30.78698424 26.75554496 37.84079091 24.69140625 43.3046875 C22.9737191 45.97370907 21.13077582 47.43364946 18.48828125 49.1953125 C15.8117218 49.43582153 15.8117218 49.43582153 12.5480957 49.42236328 C10.71653679 49.42213669 10.71653679 49.42213669 8.84797668 49.42190552 C6.86975166 49.40642166 6.86975166 49.40642166 4.8515625 49.390625 C3.48821724 49.38689411 2.12486929 49.3840475 0.76152039 49.38204956 C-2.82406029 49.37441903 -6.40947854 49.35477565 -9.99499512 49.3326416 C-13.65484419 49.31217061 -17.31471954 49.30304517 -20.97460938 49.29296875 C-28.15371982 49.2715291 -35.33269651 49.23740029 -42.51171875 49.1953125 C-38.63671875 42.3203125 -38.63671875 42.3203125 -37.51171875 41.1953125 C-35.86553408 41.08284659 -34.21463356 41.03854434 -32.56469727 41.02172852 C-31.51012833 41.00823868 -30.45555939 40.99474884 -29.36903381 40.98085022 C-27.64722145 40.96519264 -27.64722145 40.96519264 -25.890625 40.94921875 C-23.48762648 40.91628623 -21.08463178 40.88307449 -18.68164062 40.84960938 C-14.8716897 40.80211112 -11.06175491 40.75768434 -7.25170898 40.71850586 C-3.58951516 40.67893379 0.07235651 40.62735629 3.734375 40.57421875 C4.88022568 40.5658046 6.02607635 40.55739044 7.20664978 40.54872131 C8.26437088 40.53207932 9.32209198 40.51543732 10.41186523 40.49829102 C11.34594711 40.48798355 12.28002899 40.47767609 13.24241638 40.46705627 C15.68966427 40.40529495 15.68966427 40.40529495 17.48828125 38.1953125 C17.90494792 34.6953125 17.90494792 34.6953125 17.48828125 31.1953125 C14.24607398 29.03384098 13.30534096 28.94742885 9.55859375 28.921875 C8.59824219 28.90125 7.63789063 28.880625 6.6484375 28.859375 C4.63289699 28.83343497 2.6172428 28.81514499 0.6015625 28.8046875 C-6.790205 28.62657262 -6.790205 28.62657262 -10.58984375 26.35546875 C-13.64406989 22.92256823 -15.40608879 19.62057634 -15.609375 14.953125 C-15.24934398 9.73706577 -13.91081333 6.29422067 -10.51171875 2.1953125 C-6.86867011 -0.23338659 -4.20449536 -0.06144425 0 0 Z " fill="#444444" transform="translate(389.51171875,40.8046875)"/>
<path d="M0 0 C1.80078125 1.6796875 1.80078125 1.6796875 3.3125 3.875 C3.82425781 4.59429688 4.33601563 5.31359375 4.86328125 6.0546875 C6 8 6 8 6 10 C5.443125 10.14695312 4.88625 10.29390625 4.3125 10.4453125 C-3.57769663 12.76439056 -9.61338065 16.14769233 -13.875 23.375 C-18.11221618 31.96356613 -18.25918936 39.55398761 -18 49 C-20.33159304 49.65272461 -22.66497796 50.29725202 -25 50.9375 C-25.97259766 51.21110352 -25.97259766 51.21110352 -26.96484375 51.49023438 C-31.63432109 52.76162672 -36.18658809 53.48964941 -41 54 C-41.11783281 50.37528143 -41.18778808 46.75106597 -41.25 43.125 C-41.28351562 42.11179688 -41.31703125 41.09859375 -41.3515625 40.0546875 C-41.49550214 28.82739543 -37.8350803 20.05979579 -30 12 C-22.14759922 5.32216001 -10.75362556 -1.3683243 0 0 Z " fill="#3480B1" transform="translate(63,4)"/>
<path d="M0 0 C2.31 0 4.62 0 7 0 C7.02505615 1.20648193 7.0501123 2.41296387 7.07592773 3.65600586 C7.16982523 8.11575661 7.27008833 12.57534513 7.37231445 17.03491211 C7.41573041 18.96814185 7.45740042 20.90141159 7.49731445 22.8347168 C7.55485631 25.60738202 7.6185962 28.37984457 7.68359375 31.15234375 C7.70030624 32.02213364 7.71701874 32.89192352 7.73423767 33.78807068 C7.45026213 37.71115966 7.45026213 37.71115966 9 41 C10.55432784 41.10887475 12.11354146 41.14904333 13.67163086 41.16113281 C14.66613754 41.17074036 15.66064423 41.1803479 16.68528748 41.19024658 C18.30866783 41.1966214 18.30866783 41.1966214 19.96484375 41.203125 C21.0684877 41.20882507 22.17213165 41.21452515 23.30921936 41.22039795 C25.64876339 41.22986397 27.98832084 41.23638826 30.32788086 41.24023438 C33.91869175 41.24994912 37.50893277 41.28096177 41.09960938 41.3125 C43.36718408 41.31902865 45.6347629 41.32427966 47.90234375 41.328125 C48.98257309 41.3404718 50.06280243 41.3528186 51.17576599 41.36553955 C52.17342484 41.36253845 53.17108368 41.35953735 54.19897461 41.35644531 C55.07976181 41.36009094 55.96054901 41.36373657 56.86802673 41.36749268 C57.57157791 41.24622009 58.27512909 41.12494751 59 41 C61.57069617 37.14395575 61.35065056 33.87253657 61.4140625 29.39453125 C61.43342865 28.55532639 61.4527948 27.71612152 61.4727478 26.85148621 C61.53251213 24.17192742 61.57891612 21.4923256 61.625 18.8125 C61.6631827 16.99542401 61.70223461 15.17836606 61.7421875 13.36132812 C61.83821103 8.90769868 61.92225359 4.45398449 62 0 C64.31 0 66.62 0 69 0 C69.07446471 5.42599527 69.12875037 10.8516894 69.16479492 16.27807617 C69.17982988 18.12187892 69.20026333 19.96564622 69.22631836 21.80932617 C69.26293561 24.4680255 69.27977943 27.12624971 69.29296875 29.78515625 C69.30845261 30.60210464 69.32393646 31.41905304 69.33988953 32.26075745 C69.34171703 38.55381737 68.324068 43.15763168 64.22975159 48.16503906 C61.47829916 50.42933063 60.1198557 50.51043267 56.59228516 50.53344727 C55.51081207 50.5492836 54.42933899 50.56511993 53.31509399 50.58143616 C52.1515036 50.57647629 50.98791321 50.57151642 49.7890625 50.56640625 C48.58816986 50.57260483 47.38727722 50.57880341 46.1499939 50.58518982 C43.60976981 50.59229371 41.06949921 50.58910418 38.52929688 50.57641602 C34.6462603 50.56257578 30.76564456 50.59658756 26.8828125 50.63476562 C24.41406191 50.63571705 21.94530831 50.63385676 19.4765625 50.62890625 C17.7372496 50.64879356 17.7372496 50.64879356 15.96279907 50.66908264 C6.97348301 50.56550989 6.97348301 50.56550989 3.28271484 47.64819336 C0.41576445 44.32222428 -0.12627361 42.04911231 -0.11352539 37.80395508 C-0.11344986 36.96331009 -0.11337433 36.1226651 -0.11329651 35.25654602 C-0.10813522 34.35333115 -0.10297394 33.45011627 -0.09765625 32.51953125 C-0.0962413 31.59154221 -0.09482635 30.66355316 -0.09336853 29.70744324 C-0.08776937 26.74242942 -0.07521704 23.77749101 -0.0625 20.8125 C-0.05748489 18.80273547 -0.052922 16.79296975 -0.04882812 14.78320312 C-0.03780021 9.85543968 -0.02053617 4.92773263 0 0 Z " fill="#444444" transform="translate(76,40)"/>
<path d="M0 0 C1.16796875 1.86328125 1.16796875 1.86328125 2.1875 4.3125 C4.77200176 9.94331105 8.2755995 14.52467619 12.109375 19.3359375 C15.55611704 24.19271037 15.02109319 28.61184415 14.625 34.375 C14.58117188 35.1175 14.53734375 35.86 14.4921875 36.625 C14.22617952 40.80723655 13.77277191 44.87418389 13 49 C0.31328408 43.16237673 -9.86584432 31.05564312 -17 19.3125 C-17.3616626 18.71945068 -17.7233252 18.12640137 -18.09594727 17.51538086 C-20.77434972 12.88997364 -22.46137707 8.10761616 -24 3 C-20.75290806 2.29825244 -17.50199748 1.61611931 -14.25 0.9375 C-13.32960938 0.73833984 -12.40921875 0.53917969 -11.4609375 0.33398438 C-10.57148437 0.15029297 -9.68203125 -0.03339844 -8.765625 -0.22265625 C-7.94868164 -0.39547119 -7.13173828 -0.56828613 -6.29003906 -0.74633789 C-3.86128857 -1.01536473 -2.28171518 -0.85481944 0 0 Z " fill="#1571AB" transform="translate(49,64)"/>
<path d="M0 0 C2.31 0 4.62 0 7 0 C7 13.86 7 27.72 7 42 C23.17 42 39.34 42 56 42 C56 44.64 56 47.28 56 50 C37.52 50 19.04 50 0 50 C0 33.5 0 17 0 0 Z " fill="#444444" transform="translate(173,40)"/>
<path d="M0 0 C0.99 0 1.98 0 3 0 C6.41652301 1.28119613 8.19835355 2.82567053 10 6 C10.625 9.4375 10.625 9.4375 11 13 C11.32089003 14.66910709 11.65186317 16.33636253 12 18 C9.66840696 18.65272461 7.33502204 19.29725202 5 19.9375 C4.35160156 20.11990234 3.70320313 20.30230469 3.03515625 20.49023438 C-1.63432109 21.76162672 -6.18658809 22.48964941 -11 23 C-11.0580476 19.72924117 -11.09361165 16.45861476 -11.125 13.1875 C-11.14175781 12.25873047 -11.15851562 11.32996094 -11.17578125 10.37304688 C-11.18222656 9.48037109 -11.18867188 8.58769531 -11.1953125 7.66796875 C-11.20578613 6.84578857 -11.21625977 6.0236084 -11.22705078 5.17651367 C-11 3 -11 3 -9 0 C-5.48926273 -1.17024576 -3.58876152 -0.67289278 0 0 Z " fill="#247DB6" transform="translate(33,35)"/>
<path d="M0 0 C4.29 0 8.58 0 13 0 C12.02638202 4.86808988 10.95842675 7.1450803 8 11 C7.34 11 6.68 11 6 11 C6 11.66 6 12.32 6 13 C-5.97265543 23.54424752 -20.24470875 25.83085263 -35.66699219 25.18798828 C-45.74807045 24.37567871 -55.85653048 21.22351909 -65 17 C-60.31749166 15.62701068 -56.27081226 16.4759664 -51.5625 17.5625 C-48.00349672 18.17013471 -44.61214636 18.05826043 -41 18 C-38 18 -38 18 -34.5625 18.5625 C-31.3658565 18.95507025 -29.96105946 18.81684399 -27 18 C-26.360625 18.165 -25.72125 18.33 -25.0625 18.5 C-22.3862539 19.14878693 -20.70568028 18.58819137 -18 18 C-17.31164062 17.99613281 -16.62328125 17.99226563 -15.9140625 17.98828125 C-7.75146172 17.81657606 -1.22151935 14.100199 5 9 C6.40848333 6.3838524 6.40848333 6.3838524 7 4 C6.401875 3.71125 5.80375 3.4225 5.1875 3.125 C3 2 3 2 0 0 Z " fill="#196A9E" transform="translate(142,106)"/>
<path d="M0 0 C-0.51949219 0.32871094 -1.03898437 0.65742188 -1.57421875 0.99609375 C-9.43785327 6.35964484 -12.57656444 12.1300311 -14.40698242 21.34228516 C-14.99367152 24.55441678 -15.51271861 27.77126555 -16 31 C-16.33 31 -16.66 31 -17 31 C-17.09796875 30.38511719 -17.1959375 29.77023438 -17.296875 29.13671875 C-18.12596175 24.09506893 -18.12596175 24.09506893 -20.9375 20 C-26.18416098 17.45616438 -30.36536129 17.97552023 -36 19 C-36.66 19.66 -37.32 20.32 -38 21 C-36.87518239 13.91364907 -34.7906799 8.46113129 -30 3 C-29.01 2.67 -28.02 2.34 -27 2 C-26.34 3.32 -25.68 4.64 -25 6 C-18.45198804 5.68316071 -13.99577789 4.33260482 -8.26171875 1.15625 C-3.03330487 -1.51665243 -3.03330487 -1.51665243 0 0 Z " fill="#1671AB" transform="translate(60,17)"/>
<path d="M0 0 C1.8871875 0.0928125 1.8871875 0.0928125 3.8125 0.1875 C7.79099703 1.20162669 8.86962726 2.55862864 11 6 C12.01702117 9.0510635 12.16582083 11.24199061 12.1875 14.4375 C12.20167969 15.38496094 12.21585938 16.33242187 12.23046875 17.30859375 C11.99614518 20.04501644 11.39701383 21.66428123 10 24 C5.68023337 23.52461898 3.13623412 20.73350403 0.125 17.875 C-0.67019043 17.13056641 -0.67019043 17.13056641 -1.48144531 16.37109375 C-5.27229513 12.78295072 -8.86142679 9.18476429 -12 5 C-12 4.01 -12 3.02 -12 2 C-7.89749529 -0.73500314 -4.79475273 -0.23933874 0 0 Z " fill="#3089C1" transform="translate(49,86)"/>
<path d="M0 0 C10.89629252 -0.34701569 20.97616461 3.33132078 30.875 7.5625 C31.91901978 8.00154663 31.91901978 8.00154663 32.98413086 8.44946289 C34.69742858 9.21291128 36.35533637 10.09815518 38 11 C38.495 12.485 38.495 12.485 39 14 C31.98454162 13.6449419 25.59870607 12.79627478 18.87890625 10.7421875 C15.5918374 9.89477491 12.37278486 9.55353867 9 9.1875 C3.30622146 8.39726027 3.30622146 8.39726027 0.6875 5 C0 2 0 2 0 0 Z " fill="#3783B5" transform="translate(73,4)"/>
<path d="M0 0 C3.45126668 1.27981945 6.36628064 2.79518261 9.4375 4.8125 C24.91857514 14.22076111 40.49137537 15.53511638 58 14 C53.2649137 19.06018177 47.39967138 20.58752277 40.65625 21.0546875 C27.37026683 20.78115255 14.77868837 12.46642486 4.109375 5.28515625 C2.12701149 3.8265673 2.12701149 3.8265673 0 4 C0 2.68 0 1.36 0 0 Z " fill="#2C75A4" transform="translate(75,98)"/>
<path d="M0 0 C4.7145661 1.86618241 8.86137631 4.04175519 13.10546875 6.81640625 C14.99729716 8.04472218 14.99729716 8.04472218 17.11328125 9.02734375 C19.99747158 10.51422448 21.19575427 12.2936314 23 15 C19.51453502 15.87136625 17.42947121 15.8573678 14 15 C12.32577014 15.29299023 10.65821773 15.62690101 9 16 C5.09567131 16 2.61973402 15.31626692 -1 14 C-1.625 11.6875 -1.625 11.6875 -2 9 C-1.34 8.01 -0.68 7.02 0 6 C-0.33 5.01 -0.66 4.02 -1 3 C-0.67 2.01 -0.34 1.02 0 0 Z " fill="#3089C2" transform="translate(75,104)"/>
<path d="M0 0 C1.72945653 0.14235457 3.45855654 0.28904382 5.1875 0.4375 C6.63189453 0.55931641 6.63189453 0.55931641 8.10546875 0.68359375 C11 1 11 1 13.60546875 1.53125 C15.85847585 1.97229543 17.83672279 2.10288136 20.125 2.0625 C23.72713445 2.00440106 26.88349754 1.98093596 30.4375 2.5625 C33.6341435 2.95507025 35.03894054 2.81684399 38 2 C38.639375 2.165 39.27875 2.33 39.9375 2.5 C42.60868862 3.14756088 44.30931673 2.59792962 47 2 C49.99536095 1.62179786 52.99663204 1.30753441 56 1 C56.495 1.99 56.495 1.99 57 3 C49.89387826 5.26427526 43.20111613 6.41292443 35.75 6.7890625 C32.91058781 6.89494496 32.91058781 6.89494496 30 8 C19.59375575 9.05826213 9.49800956 4.93909699 0 1 C0 0.67 0 0.34 0 0 Z " fill="#1770A9" transform="translate(77,122)"/>
<path d="M0 0 C1.16796875 1.86328125 1.16796875 1.86328125 2.1875 4.3125 C4.81811972 10.04526561 8.32052643 14.61130262 12.20703125 19.53125 C14 22 14 22 14 24 C4.61859851 20.68600756 -0.66255161 13.7841789 -5.00390625 5.125 C-5.33261719 4.42375 -5.66132812 3.7225 -6 3 C-12.50733534 3.57081889 -17.1536113 5.07680565 -23 8 C-23.33 6.35 -23.66 4.7 -24 3 C-20.75290806 2.29825244 -17.50199748 1.61611931 -14.25 0.9375 C-13.32960938 0.73833984 -12.40921875 0.53917969 -11.4609375 0.33398438 C-10.57148437 0.15029297 -9.68203125 -0.03339844 -8.765625 -0.22265625 C-7.94868164 -0.39547119 -7.13173828 -0.56828613 -6.29003906 -0.74633789 C-3.86128857 -1.01536473 -2.28171518 -0.85481944 0 0 Z " fill="#18618F" transform="translate(49,64)"/>
<path d="M0 0 C2.125 2.0625 2.125 2.0625 3 5 C2.71711732 7.33998567 2.38882416 9.67526962 2 12 C-0.31237838 12.33417597 -2.62490604 12.66731915 -4.9375 13 C-6.22527344 13.185625 -7.51304688 13.37125 -8.83984375 13.5625 C-12 14 -12 14 -13 14 C-13.6104394 5.11471542 -13.6104394 5.11471542 -11.5625 1.375 C-7.74069214 -0.67572617 -4.23368468 -0.91236305 0 0 Z " fill="#4099D2" transform="translate(35,41)"/>
<path d="M0 0 C1.1875 1.6875 1.1875 1.6875 2 4 C0.42536072 7.48078157 -0.78882551 8.85921701 -4 11 C-10.70043466 12.04128377 -17.34817367 12.39224272 -24 11 C-22.03246796 9.45408197 -20.19401516 8.09406796 -17.9375 7 C-15.95657239 6.11054386 -15.95657239 6.11054386 -14.625 4.5625 C-10.23768843 0.34393118 -5.91079294 -0.35464758 0 0 Z " fill="#307FB1" transform="translate(148,107)"/>
<path d="M0 0 C4.29 0 8.58 0 13 0 C16.41029848 5.32006564 16.09644404 9.05542387 15 15 C14.01 15.33 13.02 15.66 12 16 C7.40444691 12.96146182 2.99038713 8.61018016 0 4 C0 2.68 0 1.36 0 0 Z " fill="#3E95CE" transform="translate(41,91)"/>
<path d="M0 0 C0.66 0.66 1.32 1.32 2 2 C1.87109375 3.98828125 1.87109375 3.98828125 1 6 C-4.58581458 10.00804463 -11.3173088 10.72097323 -18 11 C-18.33 9.68 -18.66 8.36 -19 7 C-17.39805929 6.01719585 -15.79336258 5.03888283 -14.1875 4.0625 C-13.29417969 3.51722656 -12.40085937 2.97195312 -11.48046875 2.41015625 C-7.531036 0.16488818 -4.5001238 -0.28724194 0 0 Z " fill="#318AC2" transform="translate(58,8)"/>
<path d="M0 0 C1.08667969 0.01804688 2.17335938 0.03609375 3.29296875 0.0546875 C4.54013672 0.08949219 4.54013672 0.08949219 5.8125 0.125 C8.80836618 5.1181103 9.6379934 8.43826768 8.8125 14.125 C4.06099019 19.14048258 -2.59149707 19.31384106 -9.1875 20.125 C-8.8575 18.805 -8.5275 17.485 -8.1875 16.125 C-7.26066406 15.99222656 -6.33382813 15.85945313 -5.37890625 15.72265625 C-4.18136719 15.54605469 -2.98382813 15.36945312 -1.75 15.1875 C-0.55503906 15.01347656 0.63992187 14.83945312 1.87109375 14.66015625 C4.69205676 14.43514787 4.69205676 14.43514787 5.8125 13.125 C5.52780797 8.10000306 5.52780797 8.10000306 2.8125 4.125 C1.13956064 4.42527117 -0.52735384 4.76057767 -2.1875 5.125 C-3.1775 4.795 -4.1675 4.465 -5.1875 4.125 C-7.37788423 5.49668238 -7.37788423 5.49668238 -9.1875 7.125 C-9.375 4.75 -9.375 4.75 -9.1875 2.125 C-5.66070901 -0.22619399 -4.15870515 -0.08943452 0 0 Z " fill="#358BC2" transform="translate(31.1875,37.875)"/>
<path d="M0 0 C0 3 0 3 -2.3125 6 C-7.22292299 12.57968859 -8.24602321 21.00784608 -9 29 C-9.33 29 -9.66 29 -10 29 C-10.72482005 26.00407714 -11.37948759 23.01774379 -12 20 C-12.21011719 19.14921875 -12.42023437 18.2984375 -12.63671875 17.421875 C-13.14907155 14.74944277 -13.40990372 12.69556248 -13 10 C-9.70979231 5.57151339 -4.82785523 2.56479809 0 0 Z " fill="#166AA0" transform="translate(53,19)"/>
<path d="M0 0 C5.28 0 10.56 0 16 0 C16 2.31 16 4.62 16 7 C10.72 7 5.44 7 0 7 C0 4.69 0 2.38 0 0 Z " fill="#444444" transform="translate(151,61)"/>
<path d="M0 0 C6.22953422 1.00117514 11.72736113 2.96433804 17.5 5.4375 C18.21865234 5.73793213 18.93730469 6.03836426 19.67773438 6.34790039 C21.49197489 7.14629642 23.25191204 8.06560536 25 9 C25.33 9.99 25.66 10.98 26 12 C17.97383806 11.59378936 10.67278805 10.40152224 3 8 C4.32 7.34 5.64 6.68 7 6 C6.4946875 5.65066406 5.989375 5.30132812 5.46875 4.94140625 C4.49421875 4.25884766 4.49421875 4.25884766 3.5 3.5625 C2.8503125 3.11003906 2.200625 2.65757813 1.53125 2.19140625 C1.0259375 1.79824219 0.520625 1.40507813 0 1 C0 0.67 0 0.34 0 0 Z " fill="#2F75A3" transform="translate(86,6)"/>
<path d="M0 0 C1.66015625 2.328125 1.66015625 2.328125 3.0625 5.25 C5.06100883 9.22119713 7.01063945 12.66571323 10 16 C3.88499009 13.50869967 0.38737919 8.394715 -3 3 C-7.95 4.485 -7.95 4.485 -13 6 C-13 7.65 -13 9.3 -13 11 C-13.66 11 -14.32 11 -15 11 C-16.27839167 8.89441372 -16.98731787 7.41851016 -17.0625 4.9375 C-15.02864144 1.22869909 -10.66676898 0.5882714 -6.875 -0.75 C-4.25210306 -1.09971959 -2.52659169 -0.82813931 0 0 Z " fill="#166BA1" transform="translate(44,67)"/>
<path d="M0 0 C0 0.99 0 1.98 0 3 C-0.6290625 3.17015625 -1.258125 3.3403125 -1.90625 3.515625 C-6.18112701 4.72598174 -10.11613667 5.94430624 -14 8.125 C-18.42451878 10.48655297 -23.01483167 11.04858839 -28 11 C-29 10 -29 10 -29.0625 7.4375 C-29.041875 6.633125 -29.02125 5.82875 -29 5 C-26.10255064 4.23302811 -24.17475653 3.96529311 -21.20703125 4.5546875 C-17.6385705 5.05018631 -15.27663129 4.61390267 -11.8125 3.6875 C-10.78769531 3.42324219 -9.76289062 3.15898437 -8.70703125 2.88671875 C-5.30602322 1.77268004 -3.66086459 0 0 0 Z " fill="#247DB5" transform="translate(62,13)"/>
<path d="M0 0 C1.1446875 0.2784375 1.1446875 0.2784375 2.3125 0.5625 C5.08967375 1.22819173 5.08967375 1.22819173 8 0 C12.38100054 0 15.6342793 1.77085137 18.875 4.6875 C19.24625 5.120625 19.6175 5.55375 20 6 C17.18446892 7.01359119 15.59553843 6.94116923 12.5625 6.5 C8.10638773 5.87458073 5.20614007 6.59795331 1 8 C0.01 6.68 -0.98 5.36 -2 4 C-1.34 2.68 -0.68 1.36 0 0 Z " fill="#237DB7" transform="translate(35,81)"/>
<path d="M0 0 C4.29 0 8.58 0 13 0 C12.02638202 4.86808988 10.95842675 7.1450803 8 11 C7.34 11 6.68 11 6 11 C6 11.66 6 12.32 6 13 C1.61538462 16 1.61538462 16 -1 16 C-1.639375 16.350625 -2.27875 16.70125 -2.9375 17.0625 C-5 18 -5 18 -8 17 C-7.08476562 16.48050781 -6.16953125 15.96101563 -5.2265625 15.42578125 C-4.0256066 14.72209615 -2.8251095 14.01762763 -1.625 13.3125 C-0.72007812 12.80299805 -0.72007812 12.80299805 0.203125 12.28320312 C4.01530805 10.01707209 5.86274278 8.32915914 7 4 C6.1028125 3.566875 6.1028125 3.566875 5.1875 3.125 C3 2 3 2 0 0 Z " fill="#2E729E" transform="translate(142,106)"/>
<path d="M0 0 C0.556875 0.28875 1.11375 0.5775 1.6875 0.875 C4.02189686 2.06635767 4.02189686 2.06635767 6.6875 2.9375 C7.450625 3.288125 8.21375 3.63875 9 4 C10.28567725 7.85703174 9.89611065 11.32378451 9.625 15.3125 C9.58117188 16.05951172 9.53734375 16.80652344 9.4921875 17.57617188 C9.22675391 21.77518379 8.77706857 25.85782943 8 30 C6.68 29.34 5.36 28.68 4 28 C4.48533203 26.92685547 4.48533203 26.92685547 4.98046875 25.83203125 C7.09040344 19.97110156 6.76810511 13.41009542 4.6875 7.5625 C3.32428808 4.68460816 2.0845006 2.38228639 0 0 Z " fill="#3075A1" transform="translate(54,83)"/>
<path d="M0 0 C7.11791847 3.81607036 14.11027102 7.78545863 21 12 C20.34 13.32 19.68 14.64 19 16 C18.38253906 15.55269531 17.76507813 15.10539062 17.12890625 14.64453125 C11.59869522 10.69678548 6.01823561 7.15448582 0 4 C-0.66 4.66 -1.32 5.32 -2 6 C-1.125 1.125 -1.125 1.125 0 0 Z " fill="#3481B2" transform="translate(76,101)"/>
<path d="M0 0 C0.5775 0.226875 1.155 0.45375 1.75 0.6875 C1.75 2.0075 1.75 3.3275 1.75 4.6875 C0.76 5.0175 -0.23 5.3475 -1.25 5.6875 C-1.58 6.3475 -1.91 7.0075 -2.25 7.6875 C-4.02734375 8.171875 -4.02734375 8.171875 -6.1875 8.4375 C-6.89777344 8.53546875 -7.60804688 8.6334375 -8.33984375 8.734375 C-10.25 8.6875 -10.25 8.6875 -12.25 6.6875 C-11.3425 6.089375 -10.435 5.49125 -9.5 4.875 C-6.3606035 2.85129672 -6.3606035 2.85129672 -4.125 0.875 C-2.25 -0.3125 -2.25 -0.3125 0 0 Z " fill="#3089C2" transform="translate(143.25,110.3125)"/>
<path d="M0 0 C1.92578125 0.73046875 1.92578125 0.73046875 4 2 C4.79296875 3.98828125 4.79296875 3.98828125 5.1875 6.3125 C5.40599609 7.51132812 5.40599609 7.51132812 5.62890625 8.734375 C5.81259766 9.85585938 5.81259766 9.85585938 6 11 C6.20625 12.010625 6.4125 13.02125 6.625 14.0625 C6.74875 14.701875 6.8725 15.34125 7 16 C0.71428571 18.42857143 0.71428571 18.42857143 -3 17 C-1.68 16.34 -0.36 15.68 1 15 C1 14.31292969 1 13.62585937 1 12.91796875 C1 9.27864583 1 5.63932292 1 2 C0.67 1.34 0.34 0.68 0 0 Z " fill="#327CAB" transform="translate(38,37)"/>
<path d="M0 0 C3.61941735 1.50239966 6.7321794 2.82145293 10 5 C9.375 6.9375 9.375 6.9375 8 9 C4.875 9.75 4.875 9.75 2 10 C-1.07692308 5.69230769 -1.07692308 5.69230769 -0.6875 2.1875 C-0.460625 1.465625 -0.23375 0.74375 0 0 Z " fill="#3C8FC5" transform="translate(75,104)"/>
<path d="M0 0 C1.80078125 1.6796875 1.80078125 1.6796875 3.3125 3.875 C3.82425781 4.59429688 4.33601563 5.31359375 4.86328125 6.0546875 C6 8 6 8 6 10 C3.69 10.33 1.38 10.66 -1 11 C-0.95875 10.05125 -0.9175 9.1025 -0.875 8.125 C-0.65026182 4.89755144 -0.65026182 4.89755144 -3 3 C-6.08347826 2.83318891 -6.08347826 2.83318891 -9 3 C-9.33 2.34 -9.66 1.68 -10 1 C-6.59026057 0.22063099 -3.49160159 -0.37717918 0 0 Z " fill="#2E719C" transform="translate(63,4)"/>
<path d="M0 0 C2.85572721 0.98473352 3.97012206 1.9583843 5.75 4.4375 C7.62410473 9.77869848 8.29800827 16.02601936 5.98046875 21.3359375 C5.65691406 21.88507813 5.33335938 22.43421875 5 23 C3.68 22.67 2.36 22.34 1 22 C1.99 21.67 2.98 21.34 4 21 C4.4798619 11.76086456 4.4798619 11.76086456 2 3 C1.34 2.67 0.68 2.34 0 2 C0 1.34 0 0.68 0 0 Z " fill="#3482B3" transform="translate(54,87)"/>
<path d="M0 0 C0.66 1.32 1.32 2.64 2 4 C-2.41225737 5.47075246 -5.48281619 6.36884358 -10 5 C-10.33 4.01 -10.66 3.02 -11 2 C-7.17010894 0.19769832 -4.21878192 -0.19622241 0 0 Z " fill="#3B8FC5" transform="translate(58,8)"/>
<path d="M0 0 C7.87796996 -0.3151188 12.61339878 1.43814198 19 6 C15.57176137 7.14274621 14.88717985 6.83857544 11.625 5.625 C8.42613873 4.48217681 5.36530577 3.54279125 2 3 C1.67 3.66 1.34 4.32 1 5 C0.67 3.35 0.34 1.7 0 0 Z " fill="#357BA7" transform="translate(73,4)"/>
<path d="M0 0 C-1.58962659 4.03520597 -3.28232318 8.01811282 -5 12 C-5.66 12 -6.32 12 -7 12 C-7.33 12.99 -7.66 13.98 -8 15 C-8.84811399 12.28603523 -9.31066778 10.77012105 -9 8 C-3.93565217 0 -3.93565217 0 0 0 Z " fill="#186291" transform="translate(51,23)"/>
<path d="M0 0 C4.03321763 1.21934486 7.54269479 2.55954927 11 5 C11 5.66 11 6.32 11 7 C7.04 6.67 3.08 6.34 -1 6 C-0.67 4.02 -0.34 2.04 0 0 Z " fill="#296B95" transform="translate(101,11)"/>
<path d="M0 0 C2.48570024 3.72855036 2.30344304 6.69110878 2 11 C1.5 13.5 1.5 13.5 1 15 C-0.32 14.67 -1.64 14.34 -3 14 C-2.649375 13.13375 -2.29875 12.2675 -1.9375 11.375 C-0.92434789 7.72765241 -1.33512662 5.65680358 -2 2 C-1.34 1.34 -0.68 0.68 0 0 Z " fill="#3D8EC2" transform="translate(57,93)"/>
<path d="M0 0 C1.43655854 -0.08131463 2.8744483 -0.13933559 4.3125 -0.1875 C5.51326172 -0.23970703 5.51326172 -0.23970703 6.73828125 -0.29296875 C9 0 9 0 10.8125 1.375 C12 3 12 3 11.6875 5.1875 C11.3471875 6.0846875 11.3471875 6.0846875 11 7 C10.34 7 9.68 7 9 7 C8.34 5.68 7.68 4.36 7 3 C4.36 3 1.72 3 -1 3 C-0.67 2.01 -0.34 1.02 0 0 Z " fill="#3783B3" transform="translate(51,6)"/>
<path d="M0 0 C6.6 0.33 13.2 0.66 20 1 C20 1.66 20 2.32 20 3 C12.85650045 4.1710655 7.04321983 3.59295252 0 2 C0 1.34 0 0.68 0 0 Z " fill="#2B6E99" transform="translate(104,112)"/>
<path d="M0 0 C0.66 0.33 1.32 0.66 2 1 C1.35474023 2.4585872 0.7087728 3.91686137 0.0625 5.375 C-0.29714844 6.18710937 -0.65679688 6.99921875 -1.02734375 7.8359375 C-1.6569903 9.23683785 -2.31312642 10.62625284 -3 12 C-3.66 12 -4.32 12 -5 12 C-4.52389341 7.00088076 -2.96837781 4.02167317 0 0 Z " fill="#186A9E" transform="translate(29,21)"/>
<path d="M0 0 C0.60457031 0.31066406 1.20914063 0.62132813 1.83203125 0.94140625 C4.046618 2.07570774 4.046618 2.07570774 6.6875 2.9375 C7.450625 3.288125 8.21375 3.63875 9 4 C10.35015859 8.05047576 9.62084998 10.7920168 9 15 C8.67 15 8.34 15 8 15 C7.79375 13.824375 7.5875 12.64875 7.375 11.4375 C6.18668878 6.53571621 3.49419843 3.51617452 0 0 Z " fill="#276D99" transform="translate(54,83)"/>
<path d="M0 0 C4.60209225 -0.17700355 6.78370866 -0.10814567 11 2 C7.04 2.66 3.08 3.32 -1 4 C-0.67 2.68 -0.34 1.36 0 0 Z " fill="#3584B6" transform="translate(23,54)"/>
<path d="M0 0 C0.99 0.99 1.98 1.98 3 3 C2.34 3.66 1.68 4.32 1 5 C1.34444881 7.47266765 1.34444881 7.47266765 2 10 C2 10.99 2 11.98 2 13 C0.68 12.67 -0.64 12.34 -2 12 C-1.34 8.04 -0.68 4.08 0 0 Z " fill="#2D7DB0" transform="translate(73,108)"/>
<path d="M0 0 C0.66 0.33 1.32 0.66 2 1 C1.67 2.65 1.34 4.3 1 6 C0.2575 5.95875 -0.485 5.9175 -1.25 5.875 C-4.08758952 6.00398134 -5.58773938 6.57051222 -8 8 C-3.375 2.25 -3.375 2.25 0 0 Z " fill="#2D78A9" transform="translate(38,12)"/>
<path d="M0 0 C1 1 1 1 1.0625 3.5625 C1.041875 4.366875 1.02125 5.17125 1 6 C0.46375 5.505 -0.0725 5.01 -0.625 4.5 C-3.59358445 2.62510456 -5.55312427 2.76498575 -9 3 C-9.33 2.34 -9.66 1.68 -10 1 C-6.60169639 0.22324489 -3.48880949 -0.19382275 0 0 Z " fill="#3277A3" transform="translate(63,4)"/>
<path d="M0 0 C-0.33 1.32 -0.66 2.64 -1 4 C-1.86625 4.185625 -1.86625 4.185625 -2.75 4.375 C-5.03560051 4.91843033 -5.03560051 4.91843033 -7.0625 6.125 C-9 7 -9 7 -12 6 C-10.37829621 4.99466333 -8.75252763 3.99588093 -7.125 3 C-5.76761719 2.1646875 -5.76761719 2.1646875 -4.3828125 1.3125 C-2 0 -2 0 0 0 Z " fill="#2073A7" transform="translate(146,117)"/>
<path d="M0 0 C-2.67118269 2.19418578 -4.63309123 3.3068129 -8 4 C-10.00382009 4.65509503 -12.00458132 5.31974363 -14 6 C-10.96095324 2.3278185 -4.86447691 -2.43223845 0 0 Z " fill="#2373A5" transform="translate(60,17)"/>
<path d="M0 0 C2.5 1.3125 2.5 1.3125 5 3 C5 3.99 5 4.98 5 6 C3.35 5.67 1.7 5.34 0 5 C-0.5625 3.0625 -0.5625 3.0625 -1 1 C-0.67 0.67 -0.34 0.34 0 0 Z " fill="#3994CE" transform="translate(76,108)"/>
<path d="M0 0 C0.33 0 0.66 0 1 0 C0.67 4.29 0.34 8.58 0 13 C-0.33 13 -0.66 13 -1 13 C-1.33 9.7 -1.66 6.4 -2 3 C-1.34 3 -0.68 3 0 3 C0 2.01 0 1.02 0 0 Z " fill="#286D98" transform="translate(44,35)"/>
<path d="M0 0 C2.64 0 5.28 0 8 0 C7.34 1.32 6.68 2.64 6 4 C4.02 3.01 2.04 2.02 0 1 C0 0.67 0 0.34 0 0 Z " fill="#3785B7" transform="translate(141,109)"/>
<path d="M0 0 C3.057952 1.73559438 5.63379989 3.38472619 8 6 C7.67 6.66 7.34 7.32 7 8 C5.8274869 7.04882866 4.66212985 6.08882991 3.5 5.125 C2.8503125 4.59132813 2.200625 4.05765625 1.53125 3.5078125 C1.0259375 3.01023437 0.520625 2.51265625 0 2 C0 1.34 0 0.68 0 0 Z " fill="#2274A9" transform="translate(51,82)"/>
</svg>
