<?xml version="1.0" encoding="UTF-8"?>
<svg version="1.1" xmlns="http://www.w3.org/2000/svg" width="225" height="225">
<path d="M0 0 C1.64574566 -0.02688151 3.29161413 -0.04634123 4.9375 -0.0625 C5.85402344 -0.07410156 6.77054687 -0.08570313 7.71484375 -0.09765625 C10 0 10 0 11 1 C11.11897119 3.30940485 11.16747462 5.62245163 11.18945312 7.93481445 C11.19774643 8.6600531 11.20603973 9.38529175 11.21458435 10.13250732 C11.2320236 11.7127034 11.24717971 13.29292589 11.26036072 14.87316322 C11.28133806 17.37377897 11.30836711 19.87426303 11.33703613 22.37480164 C11.39683791 27.68731733 11.44890575 32.99989439 11.5 38.3125 C11.55922296 44.45698629 11.62159171 50.60140854 11.69187927 56.74577904 C11.7184416 59.20967443 11.73926793 61.6735762 11.7598877 64.13752747 C11.77649577 65.65068871 11.79336805 67.16384708 11.81054688 68.67700195 C11.8168235 69.70503181 11.8168235 69.70503181 11.82322693 70.75382996 C11.86557108 73.97704536 12.02354363 76.91493873 13 80 C23.76992823 80.11574021 34.53970906 80.20463722 45.31013203 80.25906086 C50.31106307 80.28517881 55.31156933 80.32061688 60.31225586 80.37719727 C65.13630039 80.43143878 69.95993582 80.46140396 74.7842617 80.47438622 C76.62675609 80.48364027 78.46922755 80.50171114 80.31154823 80.52865028 C82.88828919 80.56483721 85.46332993 80.56994986 88.0402832 80.56762695 C88.80560867 80.58560333 89.57093414 80.60357971 90.35945129 80.62210083 C92.73229291 80.65534174 92.73229291 80.65534174 96 80 C99.49454931 76.31927101 99.39056537 72.54762567 99.43237305 67.6394043 C99.4425647 66.91690994 99.45275635 66.19441559 99.46325684 65.45002747 C99.49332195 63.07467835 99.50264254 60.69973293 99.51171875 58.32421875 C99.5285703 56.67225308 99.54672119 55.02030019 99.56611633 53.36836243 C99.61357096 49.02997839 99.64340955 44.69164619 99.66955566 40.35308838 C99.69938416 35.92213707 99.74590661 31.49136431 99.79101562 27.06054688 C99.8769971 18.37378573 99.94436517 9.68700825 100 1 C103.42255584 0.0645509 106.44103015 -0.15817644 110 0 C111.90946323 1.90946323 111.16702165 5.42242677 111.17700195 8.02319336 C111.18357315 8.75830139 111.19014435 9.49340942 111.19691467 10.25079346 C111.21670965 12.69714452 111.22832983 15.14343374 111.23828125 17.58984375 C111.24235678 18.42595247 111.2464323 19.2620612 111.25063133 20.12350655 C111.27152797 24.55702596 111.28580865 28.99051419 111.29516602 33.42407227 C111.30618046 37.9868837 111.34051177 42.54920066 111.38033772 47.11183834 C111.40660819 50.63195138 111.41486752 54.15194914 111.41844749 57.67215157 C111.42329412 59.35252752 111.43485273 61.032899 111.45348549 62.71317863 C111.56772435 73.70707213 111.3829915 84.04820374 103.4375 92.5625 C102.85871094 93.20316406 102.27992188 93.84382813 101.68359375 94.50390625 C98.06468377 97.71978217 93.70892651 97.16075592 89.15136719 97.17700195 C88.3526268 97.18357315 87.55388641 97.19014435 86.73094177 97.19691467 C84.08625188 97.21663283 81.44161875 97.22830745 78.796875 97.23828125 C77.8926606 97.24235678 76.9884462 97.2464323 76.05683136 97.25063133 C71.27014902 97.27148655 66.48349529 97.28579019 61.69677734 97.29516602 C56.75933185 97.30622447 51.82233777 97.34061937 46.88505173 97.38033772 C43.08283668 97.40651736 39.28072894 97.41485909 35.4784317 97.41844749 C33.65881555 97.42331059 31.83920411 97.43491671 30.01967621 97.45348549 C27.46816018 97.47790419 24.9178087 97.47690712 22.36621094 97.4699707 C21.61997971 97.48278076 20.87374847 97.49559082 20.10490417 97.50878906 C14.66558887 97.45511327 11.49718177 96.08012896 7 93 C5.0390625 90.5625 5.0390625 90.5625 3.625 88 C2.90183594 86.7315625 2.90183594 86.7315625 2.1640625 85.4375 C-0.07654327 80.74576175 -0.13903444 76.43316216 -0.11352539 71.29394531 C-0.11374443 70.13727104 -0.11374443 70.13727104 -0.1139679 68.95722961 C-0.11327249 66.4141659 -0.10549749 63.87117588 -0.09765625 61.328125 C-0.09579075 59.56264282 -0.09436747 57.79716013 -0.09336853 56.03167725 C-0.08955375 51.38908454 -0.07973232 46.7465232 -0.06866455 42.10394287 C-0.0584281 37.36487248 -0.05386612 32.62579701 -0.04882812 27.88671875 C-0.03810913 18.59113206 -0.02104517 9.29556864 0 0 Z " fill="#454545" transform="translate(85,52)"/>
<path d="M0 0 C2.9083563 0.60645725 5.07353271 1.49313535 7.58203125 3.07421875 C8.25919189 3.49179443 8.93635254 3.90937012 9.6340332 4.33959961 C10.71237427 5.0068103 10.71237427 5.0068103 11.8125 5.6875 C32.21491464 17.97275429 57.82229269 25.49464042 81.6796875 20.09375 C87.56707295 18.4779777 92.64788029 16.5222571 97.4375 12.625 C103.50275999 7.96307467 111.89193615 10.10231111 119 11 C119.495 11.99 119.495 11.99 120 13 C112.72026889 27.65817043 99.83997955 37.74130475 84.53125 43.19140625 C83.6959375 43.45824219 82.860625 43.72507813 82 44 C80.71609375 44.44666016 80.71609375 44.44666016 79.40625 44.90234375 C51.9934191 52.89775276 22.00116113 44.45708022 -2.875 32.4921875 C-5 31 -5 31 -5.69287109 29.26855469 C-6.08553647 26.3681996 -5.62824249 24.07755107 -5.0390625 21.2109375 C-4.81476563 20.10492188 -4.59046875 18.99890625 -4.359375 17.859375 C-3.99585937 16.13460937 -3.99585937 16.13460937 -3.625 14.375 C-3.39039062 13.21742188 -3.15578125 12.05984375 -2.9140625 10.8671875 C-1.15438988 2.30877976 -1.15438988 2.30877976 0 0 Z " fill="#2C84BD" transform="translate(93,160)"/>
<path d="M0 0 C2.88881904 -0.35175879 4.67712503 -0.38282145 7.44140625 0.5625 C10.81913042 3.82132828 13.40247946 7.33157385 15.44140625 11.5625 C15.11140625 12.5525 14.78140625 13.5425 14.44140625 14.5625 C11.81640625 15.703125 11.81640625 15.703125 8.44140625 16.8125 C2.07555369 19.14130039 -2.62143109 21.94580226 -7.55859375 26.5625 C-8.12191406 27.08457031 -8.68523438 27.60664062 -9.265625 28.14453125 C-18.46105032 37.71242949 -19.62621728 50.36277002 -20.12109375 62.9375 C-20.18586914 64.47083984 -20.18586914 64.47083984 -20.25195312 66.03515625 C-20.35747167 68.54415288 -20.45958588 71.05323943 -20.55859375 73.5625 C-24.93123272 74.57301767 -29.30704803 75.56905097 -33.68359375 76.5625 C-34.92109375 76.84867187 -36.15859375 77.13484375 -37.43359375 77.4296875 C-39.23183594 77.83574219 -39.23183594 77.83574219 -41.06640625 78.25 C-42.1661377 78.50136719 -43.26586914 78.75273438 -44.39892578 79.01171875 C-47.5222639 79.55616712 -50.39555436 79.66251706 -53.55859375 79.5625 C-57.93317936 62.41981495 -54.14357237 43.52899162 -45.46875 28.5 C-36.18334453 14.22060345 -21.33977245 5.3098478 -4.9609375 1.0625 C-3.30527043 0.71790588 -1.65170237 0.36312235 0 0 Z " fill="#237EB8" transform="translate(66.55859375,17.4375)"/>
<path d="M0 0 C1.56018216 2.59234856 2.88935171 5.09381321 4.1875 7.8125 C7.5556038 14.53038737 11.18585175 20.38657573 15.859375 26.2890625 C16.56578125 27.18367188 17.2721875 28.07828125 18 29 C18.92554688 29.92167969 19.85109375 30.84335938 20.8046875 31.79296875 C24.91852845 37.61193022 22.97216955 45.96826334 22.375 52.6875 C22.26190168 54.21141078 22.15120245 55.73550162 22.04296875 57.25976562 C21.16241568 69.07108482 21.16241568 69.07108482 20 73 C15.30567637 71.51434327 12.00938014 68.76260209 8.375 65.5625 C7.75890869 65.02318848 7.14281738 64.48387695 6.50805664 63.92822266 C4.66120851 62.29714679 2.82845109 60.6516517 1 59 C0.04222656 58.14019531 -0.91554687 57.28039062 -1.90234375 56.39453125 C-14.26175078 44.68848494 -31.58142895 24.44179234 -34 7 C-30.41837252 3.41837252 -24.95021834 3.24843005 -20.10595703 2.23071289 C-18.13682055 1.81499551 -16.17204703 1.38199273 -14.20703125 0.94726562 C-12.96566406 0.68236328 -11.72429688 0.41746094 -10.4453125 0.14453125 C-9.30594238 -0.09934326 -8.16657227 -0.34321777 -6.99267578 -0.59448242 C-4.17439509 -0.97636888 -2.57245249 -1.16880007 0 0 Z " fill="#2984BE" transform="translate(52,107)"/>
<path d="M0 0 C1.22203125 0.00386719 1.22203125 0.00386719 2.46875 0.0078125 C3.2834375 0.00523438 4.098125 0.00265625 4.9375 0 C6.96875 0.1328125 6.96875 0.1328125 7.96875 1.1328125 C8.0849714 3.48311162 8.13672795 5.80444188 8.14575195 8.15600586 C8.15232315 8.89111389 8.15889435 9.62622192 8.16566467 10.38360596 C8.18545965 12.82995702 8.19707983 15.27624624 8.20703125 17.72265625 C8.21110678 18.55876497 8.2151823 19.3948737 8.21938133 20.25631905 C8.24027797 24.68983846 8.25455865 29.12332669 8.26391602 33.55688477 C8.27493046 38.1196962 8.30926177 42.68201316 8.34908772 47.24465084 C8.37535819 50.76476388 8.38361752 54.28476164 8.38719749 57.80496407 C8.39204412 59.48534002 8.40360273 61.1657115 8.42223549 62.84599113 C8.51662774 71.92992603 8.43505526 79.93622472 3.96875 88.1328125 C3.63875 88.7928125 3.30875 89.4528125 2.96875 90.1328125 C0.98875 89.6378125 0.98875 89.6378125 -1.03125 89.1328125 C-0.70125 86.8228125 -0.37125 84.5128125 -0.03125 82.1328125 C-0.36125 82.7928125 -0.69125 83.4528125 -1.03125 84.1328125 C-2.69736905 84.1755335 -4.36507885 84.17345082 -6.03125 84.1328125 C-6.36125 83.8028125 -6.69125 83.4728125 -7.03125 83.1328125 C-9.5557407 83.00781098 -12.05424617 82.94677712 -14.58032227 82.92749023 C-15.76560013 82.91264084 -15.76560013 82.91264084 -16.974823 82.89749146 C-19.59906978 82.86578402 -22.22333469 82.84108271 -24.84765625 82.81640625 C-26.66227197 82.79584469 -28.4768828 82.77484844 -30.29148865 82.75343323 C-35.0770982 82.69813009 -39.86275156 82.6487573 -44.6484375 82.60058594 C-49.52803464 82.55043093 -54.40756785 82.49471362 -59.28710938 82.43945312 C-68.86843502 82.33177082 -78.44981608 82.23034837 -88.03125 82.1328125 C-88.03125 81.8028125 -88.03125 81.4728125 -88.03125 81.1328125 C-86.5190815 81.13067497 -86.5190815 81.13067497 -84.97636414 81.12849426 C-75.48516398 81.11183932 -65.9943934 81.06911214 -56.50342083 81.00072193 C-51.62371843 80.96640134 -46.74433078 80.94133411 -41.86450195 80.93725586 C-37.15689867 80.93298372 -32.45000603 80.90461185 -27.74262428 80.85938072 C-25.9448949 80.84637084 -24.14708062 80.84211035 -22.34930992 80.84665871 C-19.83454622 80.85154021 -17.32187929 80.82558496 -14.80737305 80.79223633 C-14.06074905 80.80086197 -13.31412506 80.80948761 -12.5448761 80.81837463 C-10.22530614 80.82242319 -10.22530614 80.82242319 -7.03125 80.1328125 C-3.55090946 76.43549427 -3.64529964 72.70153738 -3.61474609 67.78808594 C-3.60616074 67.06719788 -3.59757538 66.34630981 -3.58872986 65.60357666 C-3.56373822 63.23301322 -3.55929816 60.86287044 -3.5546875 58.4921875 C-3.54037454 56.84261805 -3.52461699 55.19306056 -3.50747681 53.54351807 C-3.46567726 49.21043259 -3.44064111 44.87742129 -3.41998291 40.54418945 C-3.38412021 33.59415695 -3.32332349 26.64430695 -3.26149368 19.69446564 C-3.24235204 17.26308747 -3.23066129 14.8317583 -3.22006226 12.40032959 C-3.20985635 10.92020559 -3.19949896 9.44008263 -3.18896484 7.95996094 C-3.17922134 6.01401031 -3.17922134 6.01401031 -3.16928101 4.02874756 C-2.9865635 0.19527531 -2.9865635 0.19527531 0 0 Z " fill="#5D5D5D" transform="translate(188.03125,51.8671875)"/>
<path d="M0 0 C0.66 0.66 1.32 1.32 2 2 C3.78883036 1.75919591 5.57687315 1.51044242 7.359375 1.2265625 C12.89832543 0.75132711 18.47803067 1.49588763 24 2 C24.33 3.32 24.66 4.64 25 6 C25.99 6 26.98 6 28 6 C27.67 7.65 27.34 9.3 27 11 C27.99 10.67 28.98 10.34 30 10 C30.80212628 8.12612784 30.80212628 8.12612784 31.1875 5.9375 C31.34605469 5.20402344 31.50460938 4.47054687 31.66796875 3.71484375 C31.77753906 3.14894531 31.88710938 2.58304687 32 2 C32.33 2 32.66 2 33 2 C32.67 10.91 32.34 19.82 32 29 C27.66875 29.99 23.3375 30.98 18.875 32 C17.52003418 32.31324219 16.16506836 32.62648437 14.76904297 32.94921875 C13.68768066 33.19285156 12.60631836 33.43648437 11.4921875 33.6875 C10.39245605 33.93886719 9.29272461 34.19023438 8.15966797 34.44921875 C5.03632985 34.99366712 2.16303939 35.10001706 -1 35 C-2.14052762 29.86904783 -2.18382845 24.98563599 -2.1875 19.75 C-2.19974609 18.84636719 -2.21199219 17.94273438 -2.22460938 17.01171875 C-2.23750304 11.03765415 -1.49381002 5.78629968 0 0 Z " fill="#4096CC" transform="translate(14,62)"/>
<path d="M0 0 C1.64574566 -0.02688151 3.29161413 -0.04634123 4.9375 -0.0625 C5.85402344 -0.07410156 6.77054687 -0.08570313 7.71484375 -0.09765625 C10 0 10 0 11 1 C11.11897119 3.30940485 11.16747462 5.62245163 11.18945312 7.93481445 C11.19774643 8.6600531 11.20603973 9.38529175 11.21458435 10.13250732 C11.2320236 11.7127034 11.24717971 13.29292589 11.26036072 14.87316322 C11.28133806 17.37377897 11.30836711 19.87426303 11.33703613 22.37480164 C11.39683791 27.68731733 11.44890575 32.99989439 11.5 38.3125 C11.55922296 44.45698629 11.62159171 50.60140854 11.69187927 56.74577904 C11.7184416 59.20967443 11.73926793 61.6735762 11.7598877 64.13752747 C11.77649577 65.65068871 11.79336805 67.16384708 11.81054688 68.67700195 C11.8168235 69.70503181 11.8168235 69.70503181 11.82322693 70.75382996 C11.8578896 75.46897164 11.8578896 75.46897164 13 80 C13.66 80.33 14.32 80.66 15 81 C11.83047153 84.26008643 8.60062011 87.22237877 5 90 C1.06393943 83.39757582 -0.15205631 79.05663036 -0.11352539 71.29394531 C-0.11374443 70.13727104 -0.11374443 70.13727104 -0.1139679 68.95722961 C-0.11327249 66.4141659 -0.10549749 63.87117588 -0.09765625 61.328125 C-0.09579075 59.56264282 -0.09436747 57.79716013 -0.09336853 56.03167725 C-0.08955375 51.38908454 -0.07973232 46.7465232 -0.06866455 42.10394287 C-0.0584281 37.36487248 -0.05386612 32.62579701 -0.04882812 27.88671875 C-0.03810913 18.59113206 -0.02104517 9.29556864 0 0 Z " fill="#535353" transform="translate(85,52)"/>
<path d="M0 0 C16.70379221 1.35310049 31.88457513 5.93013175 47.1875 12.6875 C48.05536133 13.067854 48.92322266 13.44820801 49.81738281 13.84008789 C50.61370117 14.20610107 51.41001953 14.57211426 52.23046875 14.94921875 C52.93582764 15.27237061 53.64118652 15.59552246 54.36791992 15.9284668 C56 17 56 17 57 20 C48.06141931 19.77051141 40.39440705 19.04816408 31.91015625 16.0234375 C28.62812787 15.023734 25.40828264 14.67242503 21.99609375 14.3515625 C20.91908203 14.24827637 19.84207031 14.14499023 18.73242188 14.03857422 C16.56575455 13.84881423 14.39604704 13.69064668 12.22460938 13.56689453 C4.83208106 12.91049309 4.83208106 12.91049309 2.39892578 10.24804688 C0.46238689 6.58381985 0 4.20660322 0 0 Z " fill="#4C98C6" transform="translate(90,17)"/>
<path d="M0 0 C3.35985191 3.27856517 5.96006162 6.7669747 8 11 C7.67 11.99 7.34 12.98 7 14 C4.375 15.140625 4.375 15.140625 1 16.25 C-5.3894351 18.56002654 -9.89575361 21.61388351 -15 26 C-15.99 26.66 -16.98 27.32 -18 28 C-18.97030223 23.73067018 -19.0330032 21.811881 -17 18 C-17.29805007 15.80252869 -17.29805007 15.80252869 -18 14 C-17.34 14 -16.68 14 -16 14 C-16 14.66 -16 15.32 -16 16 C-15.34 16 -14.68 16 -14 16 C-14 15.34 -14 14.68 -14 14 C-12.02 14 -10.04 14 -8 14 C-8 12.35 -8 10.7 -8 9 C-8.66 9 -9.32 9 -10 9 C-10 8.01 -10 7.02 -10 6 C-16.33881314 6.62197123 -22.67094142 7.28542887 -29 8 C-22.76437644 2.657418 -7.9458612 -3.18112275 0 0 Z " fill="#3E94CB" transform="translate(74,18)"/>
<path d="M0 0 C1.18574308 3.62750376 0.96288553 6.81121664 0.6953125 10.59375 C0.56189453 12.50994141 0.56189453 12.50994141 0.42578125 14.46484375 C0.37631348 15.12726074 0.3268457 15.78967773 0.27587891 16.47216797 C0.12554311 18.4927005 -0.01417479 20.51375908 -0.15234375 22.53515625 C-0.925406 33.32536309 -0.925406 33.32536309 -2 37 C-6.69481611 35.51418741 -9.98948234 32.76173543 -13.625 29.5625 C-14.23674072 29.02971436 -14.84848145 28.49692871 -15.47875977 27.94799805 C-24.00035925 20.45071988 -32.81472315 12.60512275 -39 3 C-39 2.34 -39 1.68 -39 1 C-37.68 1 -36.36 1 -35 1 C-34.87625 1.804375 -34.7525 2.60875 -34.625 3.4375 C-34.315625 4.7059375 -34.315625 4.7059375 -34 6 C-33.34 6.33 -32.68 6.66 -32 7 C-31.67 6.01 -31.34 5.02 -31 4 C-29 6 -29 6 -29 9 C-28.01 9.33 -27.02 9.66 -26 10 C-25.87625 11.175625 -25.87625 11.175625 -25.75 12.375 C-25.27540932 15.10873509 -25.27540932 15.10873509 -23.125 16.25 C-21.42273121 16.85080075 -19.71254562 17.42915146 -18 18 C-17.375 19.8125 -17.375 19.8125 -17 22 C-16.814375 22.7425 -16.62875 23.485 -16.4375 24.25 C-16.293125 24.8275 -16.14875 25.405 -16 26 C-14.6078125 25.690625 -14.6078125 25.690625 -13.1875 25.375 C-10 25 -10 25 -7 27 C-6.8125 29.625 -6.8125 29.625 -7 32 C-6.01 32 -5.02 32 -4 32 C-4.01160156 31.05640625 -4.02320313 30.1128125 -4.03515625 29.140625 C-4.19496465 6.40217305 -4.19496465 6.40217305 -1 1 C-0.67 0.67 -0.34 0.34 0 0 Z " fill="#70ADD1" transform="translate(74,143)"/>
<path d="M0 0 C0.33 0 0.66 0 1 0 C1.33 2.31 1.66 4.62 2 7 C2.33 7 2.66 7 3 7 C3.66 10.3 4.32 13.6 5 17 C6.36125 16.95875 7.7225 16.9175 9.125 16.875 C13.1171408 16.8623866 16.27250703 17.47077212 20 19 C20.33 18.34 20.66 17.68 21 17 C23.97 17.99 26.94 18.98 30 20 C30 20.33 30 20.66 30 21 C26.29394995 21.84371205 22.58483619 22.6731088 18.875 23.5 C17.82828125 23.73847656 16.7815625 23.97695312 15.703125 24.22265625 C14.68476563 24.44824219 13.66640625 24.67382812 12.6171875 24.90625 C11.21895752 25.22045898 11.21895752 25.22045898 9.79248047 25.54101562 C6.81592307 26.03025569 4.01116819 26.07770757 1 26 C0.22471521 22.57426063 -0.11918778 19.42760755 -0.09765625 15.91796875 C-0.09443359 14.98662109 -0.09121094 14.05527344 -0.08789062 13.09570312 C-0.07951172 12.13599609 -0.07113281 11.17628906 -0.0625 10.1875 C-0.05798828 9.20845703 -0.05347656 8.22941406 -0.04882812 7.22070312 C-0.03708684 4.81373889 -0.02066419 2.40690143 0 0 Z " fill="#4B9ED2" transform="translate(12,71)"/>
<path d="M0 0 C3.3 0.33 6.6 0.66 10 1 C10 1.33 10 1.66 10 2 C8.35 2 6.7 2 5 2 C5.33 2.66 5.66 3.32 6 4 C8.57951874 4.69093896 8.57951874 4.69093896 11.5625 5.125 C12.57441406 5.29257812 13.58632812 5.46015625 14.62890625 5.6328125 C15.80259766 5.81457031 15.80259766 5.81457031 17 6 C17 6.66 17 7.32 17 8 C19.97 8 22.94 8 26 8 C26.33 9.32 26.66 10.64 27 12 C29.49034386 13.29660434 29.49034386 13.29660434 32 14 C26.6987331 15.65586447 21.43003505 14.63559922 16 14.0625 C14.906875 13.98193359 13.81375 13.90136719 12.6875 13.81835938 C4.90065193 12.9738299 4.90065193 12.9738299 2.359375 10.22607422 C0.43362231 6.5720602 0 4.19071703 0 0 Z " fill="#4499D1" transform="translate(90,17)"/>
<path d="M0 0 C3.59884674 1.34439677 6.96584738 2.98724559 10.36791992 4.76733398 C20.11203427 9.84147989 30.11934178 14.05336623 41 16 C38.24075815 17.80411967 37.11027897 18.0127245 33.75 17.625 C32.8425 17.41875 31.935 17.2125 31 17 C31 17.66 31 18.32 31 19 C28.69 19.33 26.38 19.66 24 20 C24 19.34 24 18.68 24 18 C23.01 18 22.02 18 21 18 C20.505 15.525 20.505 15.525 20 13 C19.01 12.67 18.02 12.34 17 12 C17.33 11.34 17.66 10.68 18 10 C16.205625 10.556875 16.205625 10.556875 14.375 11.125 C10.34606752 12.15732434 7.84669696 11.73101363 4 10 C4.66 8.02 5.32 6.04 6 4 C5.01 4.33 4.02 4.66 3 5 C0.8125 3.5625 0.8125 3.5625 -1 2 C-0.67 1.34 -0.34 0.68 0 0 Z " fill="#378FC7" transform="translate(100,164)"/>
<path d="M0 0 C3.96 0.33 7.92 0.66 12 1 C8.43596375 8.24304141 4.21304422 13.78755841 -2 19 C-2.99 19.33 -3.98 19.66 -5 20 C-5.66 19.67 -6.32 19.34 -7 19 C-7 18.34 -7 17.68 -7 17 C-6.34 17 -5.68 17 -5 17 C-5 16.34 -5 15.68 -5 15 C-5.66 15 -6.32 15 -7 15 C-7.33 13.68 -7.66 12.36 -8 11 C-6.8553125 11.061875 -6.8553125 11.061875 -5.6875 11.125 C-2.77281584 11.22080824 -2.77281584 11.22080824 0 9 C0.36362818 6.79274927 0.36362818 6.79274927 0.1875 4.375 C0.125625 2.93125 0.06375 1.4875 0 0 Z " fill="#388CC3" transform="translate(200,173)"/>
<path d="M0 0 C0 0.99 0 1.98 0 3 C0.66 3 1.32 3 2 3 C2.125 5.875 2.125 5.875 2 9 C1.34 9.66 0.68 10.32 0 11 C0.350625 11.886875 0.70125 12.77375 1.0625 13.6875 C2.01755602 17.06203126 1.97151132 18.69686152 1 22 C0.67 21.01 0.34 20.02 0 19 C-0.62261719 18.86980469 -1.24523437 18.73960937 -1.88671875 18.60546875 C-4 18 -4 18 -5.51953125 15.92578125 C-7.47713149 11.96918138 -8.96577676 8.95825079 -9.125 4.5 C-8 2 -8 2 -5.625 0.625 C-3 0 -3 0 0 0 Z " fill="#1E74AB" transform="translate(30,114)"/>
<path d="M0 0 C6.7421255 2.25972338 12.96359176 5.36145676 19.2578125 8.65234375 C19.2578125 9.31234375 19.2578125 9.97234375 19.2578125 10.65234375 C16.65328979 10.51147773 14.04931053 10.36485911 11.4453125 10.21484375 C10.33833008 10.15586914 10.33833008 10.15586914 9.20898438 10.09570312 C6.02709908 9.9085334 3.29618872 9.66513582 0.2578125 8.65234375 C-0.0721875 7.66234375 -0.4021875 6.67234375 -0.7421875 5.65234375 C-1.4021875 4.99234375 -2.0621875 4.33234375 -2.7421875 3.65234375 C-2.4121875 2.99234375 -2.0821875 2.33234375 -1.7421875 1.65234375 C-2.4021875 1.32234375 -3.0621875 0.99234375 -3.7421875 0.65234375 C-1.7421875 -0.34765625 -1.7421875 -0.34765625 0 0 Z " fill="#3886B6" transform="translate(127.7421875,26.34765625)"/>
<path d="M0 0 C2.8658456 4.2987684 1.75324908 7.19032588 0.83203125 12.10546875 C-0.26052406 15.90633018 -1.75711456 17.76086482 -5 20 C-7.3125 20.8125 -7.3125 20.8125 -9 21 C-9.38909925 15.33644426 -8.40841337 12.04425709 -5.625 7.125 C-4.68527344 5.42730469 -4.68527344 5.42730469 -3.7265625 3.6953125 C-2 1 -2 1 0 0 Z " fill="#2A75A4" transform="translate(24,44)"/>
<path d="M0 0 C-0.171875 1.78125 -0.171875 1.78125 -1 4 C-3.328125 5.78125 -3.328125 5.78125 -6.25 7.5 C-10.07981243 9.77718577 -13.57226623 12.14772518 -17 15 C-17.97030223 10.73067018 -18.0330032 8.811881 -16 5 C-16.29805007 2.80252869 -16.29805007 2.80252869 -17 1 C-16.34 1 -15.68 1 -15 1 C-15 1.66 -15 2.32 -15 3 C-14.34 3 -13.68 3 -13 3 C-13 2.34 -13 1.68 -13 1 C-10.02148438 1.04882812 -10.02148438 1.04882812 -7.04296875 1.09765625 C-4.54365249 0.97818607 -2.50594088 0 0 0 Z " fill="#3087BF" transform="translate(73,31)"/>
<path d="M0 0 C4.01129222 2.83150039 6.63436243 6.72615648 7.9375 11.4375 C7.999375 12.118125 8.06125 12.79875 8.125 13.5 C6.145 14.16 4.165 14.82 2.125 15.5 C2.125 13.19 2.125 10.88 2.125 8.5 C0.145 8.83 -1.835 9.16 -3.875 9.5 C-3.875 8.84 -3.875 8.18 -3.875 7.5 C-4.535 7.17 -5.195 6.84 -5.875 6.5 C-5.875 3.5 -5.875 3.5 -4.875 0.5 C-1.875 -0.5 -1.875 -0.5 0 0 Z " fill="#347EAA" transform="translate(61.875,126.5)"/>
<path d="M0 0 C0 0.66 0 1.32 0 2 C-13.92501924 6.71178899 -27.43732378 6.43341298 -42 6 C-42 5.67 -42 5.34 -42 5 C-31.605 4.505 -31.605 4.505 -21 4 C-21.33 3.01 -21.66 2.02 -22 1 C-21.24074219 1.02320313 -20.48148438 1.04640625 -19.69921875 1.0703125 C-18.20841797 1.09738281 -18.20841797 1.09738281 -16.6875 1.125 C-15.20830078 1.15980469 -15.20830078 1.15980469 -13.69921875 1.1953125 C-7.955671 0.7797157 -6.26384174 -1.0268593 0 0 Z " fill="#3F84B1" transform="translate(178,201)"/>
<path d="M0 0 C0.66 0.33 1.32 0.66 2 1 C2 2.32 2 3.64 2 5 C3.32 5.33 4.64 5.66 6 6 C6 7.32 6 8.64 6 10 C9.3 10.33 12.6 10.66 16 11 C16 11.66 16 12.32 16 13 C16.99 13 17.98 13 19 13 C19 13.66 19 14.32 19 15 C19.78375 15.103125 20.5675 15.20625 21.375 15.3125 C24 16 24 16 26 19 C21.16907836 18.38773482 16.91523027 16.96639359 12.4375 15.125 C11.46780273 14.74021484 11.46780273 14.74021484 10.47851562 14.34765625 C0.63584565 10.36252639 0.63584565 10.36252639 -0.875 7.125 C-1.02379857 4.59542424 -0.6126741 2.45069642 0 0 Z " fill="#3F88B5" transform="translate(88,182)"/>
<path d="M0 0 C0 0.33 0 0.66 0 1 C-1.35544922 1.05607422 -1.35544922 1.05607422 -2.73828125 1.11328125 C-3.91777344 1.17902344 -5.09726563 1.24476563 -6.3125 1.3125 C-7.48425781 1.37050781 -8.65601563 1.42851562 -9.86328125 1.48828125 C-13.21969998 2.03584147 -13.90604324 2.49369483 -16 5 C-16.99 5.33 -17.98 5.66 -19 6 C-20.20882096 8.00016466 -20.20882096 8.00016466 -21 10 C-23.97 9.505 -23.97 9.505 -27 9 C-27.33 8.01 -27.66 7.02 -28 6 C-18.80349277 -1.9650095 -11.37401129 -1.58676125 0 0 Z " fill="#3E8EC2" transform="translate(212,171)"/>
<path d="M0 0 C4.6029598 1.72497507 8.93255824 3.9095871 13.3125 6.125 C14.05306641 6.49753906 14.79363281 6.87007812 15.55664062 7.25390625 C17.37201217 8.16744806 19.18613282 9.08347487 21 10 C20.01 10.66 19.02 11.32 18 12 C18 11.34 18 10.68 18 10 C16.205625 10.556875 16.205625 10.556875 14.375 11.125 C10.34606752 12.15732434 7.84669696 11.73101363 4 10 C4.66 8.02 5.32 6.04 6 4 C5.01 4.33 4.02 4.66 3 5 C0.8125 3.5625 0.8125 3.5625 -1 2 C-0.67 1.34 -0.34 0.68 0 0 Z " fill="#5199C5" transform="translate(100,164)"/>
<path d="M0 0 C3.26011642 0.69378511 4.79038253 1.45893991 7 4 C6.34 4 5.68 4 5 4 C4.80664062 4.63808594 4.61328125 5.27617187 4.4140625 5.93359375 C4.15367188 6.75988281 3.89328125 7.58617187 3.625 8.4375 C3.36976562 9.26121094 3.11453125 10.08492187 2.8515625 10.93359375 C2 13 2 13 0 14 C-0.65555119 16.52733235 -0.65555119 16.52733235 -1 19 C-1.66 19 -2.32 19 -3 19 C-3.33 19.99 -3.66 20.98 -4 22 C-3.3622098 14.47407567 -1.80110167 7.32901118 0 0 Z " fill="#6FA7C7" transform="translate(93,160)"/>
<path d="M0 0 C-0.99 0 -1.98 0 -3 0 C-3 0.66 -3 1.32 -3 2 C-4.43554025 2.50559908 -5.8735202 3.0042749 -7.3125 3.5 C-8.51326172 3.91765625 -8.51326172 3.91765625 -9.73828125 4.34375 C-12 5 -12 5 -15 5 C-15.33 5.66 -15.66 6.32 -16 7 C-16.98020375 8.0194119 -17.97803008 9.02246356 -19 10 C-19.66 8.02 -20.32 6.04 -21 4 C-18.26384911 1.26384911 -15.29411979 1.01783269 -11.625 0.3125 C-10.95210937 0.17005859 -10.27921875 0.02761719 -9.5859375 -0.11914062 C-6.12276689 -0.80427575 -3.35116246 -1.28031592 0 0 Z " fill="#4B86AB" transform="translate(39,110)"/>
<path d="M0 0 C4.75 0.875 4.75 0.875 7 2 C6.00475043 6.64449799 5.03925611 9.30716259 1 12 C-1.1875 11.625 -1.1875 11.625 -3 11 C-2.01 10.34 -1.02 9.68 0 9 C0.36362818 6.79274927 0.36362818 6.79274927 0.1875 4.375 C0.14689453 3.14910156 0.14689453 3.14910156 0.10546875 1.8984375 C0.07066406 1.27195313 0.03585938 0.64546875 0 0 Z " fill="#3E93CB" transform="translate(200,173)"/>
<path d="M0 0 C0.66 0.33 1.32 0.66 2 1 C2.3125 3.6875 2.3125 3.6875 2 7 C-0.24592708 9.80740885 -1.89467213 11.61164156 -5.3125 12.8125 C-5.869375 12.874375 -6.42625 12.93625 -7 13 C-6.56157941 8.17737354 -5.6182281 6.17965499 -2 3 C-1.34 2.01 -0.68 1.02 0 0 Z " fill="#156EA7" transform="translate(22,52)"/>
<path d="M0 0 C0.33 0 0.66 0 1 0 C1.06058594 1.0621875 1.12117187 2.124375 1.18359375 3.21875 C1.79270238 13.63715103 1.79270238 13.63715103 3 24 C9.435 23.505 9.435 23.505 16 23 C16 23.33 16 23.66 16 24 C10.92523206 25.26305335 6.27203646 26.27036084 1 26 C0.22471521 22.57426063 -0.11918778 19.42760755 -0.09765625 15.91796875 C-0.09443359 14.98662109 -0.09121094 14.05527344 -0.08789062 13.09570312 C-0.07951172 12.13599609 -0.07113281 11.17628906 -0.0625 10.1875 C-0.05798828 9.20845703 -0.05347656 8.22941406 -0.04882812 7.22070312 C-0.03708684 4.81373889 -0.02066419 2.40690143 0 0 Z " fill="#82B4D0" transform="translate(12,71)"/>
<path d="M0 0 C1.32 0 2.64 0 4 0 C4.12375 0.804375 4.2475 1.60875 4.375 2.4375 C4.684375 3.7059375 4.684375 3.7059375 5 5 C5.66 5.33 6.32 5.66 7 6 C7.33 5.01 7.66 4.02 8 3 C10 5 10 5 10 8 C10.99 8.33 11.98 8.66 13 9 C12.67 9.99 12.34 10.98 12 12 C8.77347475 11.6823628 7.32169408 11.31796069 4.98046875 9.00390625 C4.38878906 8.19824219 3.79710937 7.39257812 3.1875 6.5625 C2.58292969 5.75941406 1.97835937 4.95632812 1.35546875 4.12890625 C0 2 0 2 0 0 Z " fill="#559ECE" transform="translate(35,144)"/>
<path d="M0 0 C3.25519625 3.02268223 5.78310719 6.14096436 8 10 C7.67 10.99 7.34 11.98 7 13 C4.93359375 13.73046875 4.93359375 13.73046875 2.4375 14.1875 C1.61121094 14.34605469 0.78492187 14.50460938 -0.06640625 14.66796875 C-0.70449219 14.77753906 -1.34257813 14.88710938 -2 15 C-1.67 14.01 -1.34 13.02 -1 12 C-0.01 11.67 0.98 11.34 2 11 C2.73323796 8.98491642 2.73323796 8.98491642 3 7 C2.34 7 1.68 7 1 7 C0.67 4.69 0.34 2.38 0 0 Z " fill="#72A8C6" transform="translate(74,19)"/>
<path d="M0 0 C0.70640625 0.03544922 1.4128125 0.07089844 2.140625 0.10742188 C6.92602106 0.41104075 9.31904801 1.25654801 12.75 4.6875 C11.56664063 4.55472656 10.38328125 4.42195313 9.1640625 4.28515625 C1.03000402 3.37525628 -7.10307029 2.47591255 -15.25 1.6875 C-15.25 1.3575 -15.25 1.0275 -15.25 0.6875 C-10.04017981 -0.21944514 -5.26778098 -0.35872016 0 0 Z " fill="#76B0D2" transform="translate(109.25,27.3125)"/>
<path d="M0 0 C2.31 0 4.62 0 7 0 C4.07519591 5.94019945 1.40010722 10.10689944 -4 14 C-4 11 -4 11 -2 9 C-1.31867549 7.33927151 -0.65257873 5.672233 0 4 C0.66 3.01 1.32 2.02 2 1 C1.34 0.67 0.68 0.34 0 0 Z " fill="#5C9EC5" transform="translate(205,174)"/>
<path d="M0 0 C0.66 0.33 1.32 0.66 2 1 C1.34 3.31 0.68 5.62 0 8 C-3.7684742 8.65538682 -7.18488572 9 -11 9 C-7.37 6.03 -3.74 3.06 0 0 Z " fill="#5897BF" transform="translate(39,28)"/>
<path d="M0 0 C0.66 0.33 1.32 0.66 2 1 C2 2.32 2 3.64 2 5 C3.32 5.33 4.64 5.66 6 6 C6 7.65 6 9.3 6 11 C7.32 11.33 8.64 11.66 10 12 C9.01 12.495 9.01 12.495 8 13 C6.08984375 12.36328125 6.08984375 12.36328125 3.9375 11.3125 C3.22464844 10.97863281 2.51179688 10.64476562 1.77734375 10.30078125 C0 9 0 9 -0.7734375 7.02734375 C-1.0548456 4.50922642 -0.61130657 2.44522629 0 0 Z " fill="#4E90B9" transform="translate(88,182)"/>
<path d="M0 0 C1.98 0 3.96 0 6 0 C6 0.66 6 1.32 6 2 C7.2375 1.979375 8.475 1.95875 9.75 1.9375 C12.6640825 1.93233319 15.20953327 2.06984442 18 3 C18 3.66 18 4.32 18 5 C18.99 5.33 19.98 5.66 21 6 C18.03 6 15.06 6 12 6 C12 5.34 12 4.68 12 4 C8.37 3.67 4.74 3.34 1 3 C0.67 2.01 0.34 1.02 0 0 Z " fill="#418DBB" transform="translate(95,19)"/>
<path d="M0 0 C1.30078125 1.77734375 1.30078125 1.77734375 2.3125 3.9375 C2.65925781 4.64777344 3.00601563 5.35804687 3.36328125 6.08984375 C3.57339844 6.72019531 3.78351562 7.35054687 4 8 C3.67 8.66 3.34 9.32 3 10 C0.27573689 7.64722731 -0.8141763 5.37503669 -2 2 C-5.3 2 -8.6 2 -12 2 C-4.55005501 -1.7249725 -4.55005501 -1.7249725 0 0 Z " fill="#6294B2" transform="translate(52,107)"/>
<path d="M0 0 C1 1 1 1 1.0625 3.5625 C1.041875 4.366875 1.02125 5.17125 1 6 C-3 6 -3 6 -5.25 4.125 C-7 2 -7 2 -7 0 C-4.31633121 -1.3418344 -2.84719317 -0.73004953 0 0 Z " fill="#59A2D1" transform="translate(66,169)"/>
<path d="M0 0 C-0.73605469 0.45890625 -1.47210938 0.9178125 -2.23046875 1.390625 C-3.20628906 2.00421875 -4.18210937 2.6178125 -5.1875 3.25 C-6.15042969 3.85328125 -7.11335938 4.4565625 -8.10546875 5.078125 C-10.87405327 6.91637545 -13.43957951 8.88425949 -16 11 C-15.70820766 7.49849196 -15.21713533 6.21713533 -12.6875 3.6875 C-10 2 -10 2 -6 2 C-6 1.34 -6 0.68 -6 0 C-3.50907189 -1.24546405 -2.58919267 -0.7767578 0 0 Z " fill="#5F9DBF" transform="translate(72,35)"/>
<path d="M0 0 C1.8125 0.0625 1.8125 0.0625 4 1 C5.75 4.5625 5.75 4.5625 7 8 C5.02 8.33 3.04 8.66 1 9 C1 8.34 1 7.68 1 7 C0.34 6.67 -0.32 6.34 -1 6 C-1 3 -1 3 0 0 Z " fill="#1B73B0" transform="translate(57,127)"/>
<path d="M0 0 C1.13864162 3.41592487 0.84292788 4.21442309 -0.3125 7.5 C-0.57675781 8.2734375 -0.84101562 9.046875 -1.11328125 9.84375 C-2 12 -2 12 -4 15 C-4.33 14.34 -4.66 13.68 -5 13 C-5.99 13.495 -5.99 13.495 -7 14 C-6.25 9.25 -6.25 9.25 -4 7 C-3.60235737 5.01178687 -3.26224651 3.01055661 -3 1 C-2.34 1.33 -1.68 1.66 -1 2 C-0.67 1.34 -0.34 0.68 0 0 Z " fill="#3886B4" transform="translate(47,60)"/>
<path d="M0 0 C1.32 1.32 2.64 2.64 4 4 C3.505 5.3921875 3.505 5.3921875 3 6.8125 C1.85032996 9.92029291 1.85032996 9.92029291 2 13 C1.01 12.67 0.02 12.34 -1 12 C-1.02698189 10.37509046 -1.04638757 8.75005367 -1.0625 7.125 C-1.07410156 6.22007812 -1.08570312 5.31515625 -1.09765625 4.3828125 C-1 2 -1 2 0 0 Z " fill="#3894CF" transform="translate(93,172)"/>
<path d="M0 0 C6.27 0.66 12.54 1.32 19 2 C19 2.33 19 2.66 19 3 C10.75 3 2.5 3 -6 3 C-6.33 2.34 -6.66 1.68 -7 1 C-4.69 1.33 -2.38 1.66 0 2 C0 1.34 0 0.68 0 0 Z " fill="#176B9F" transform="translate(141,203)"/>
<path d="M0 0 C5.28 1.32 10.56 2.64 16 4 C11.29021661 6.3548917 10.18086284 5.90702434 5.25 4.625 C3.49429688 4.18027344 3.49429688 4.18027344 1.703125 3.7265625 C0.81109375 3.48679688 -0.0809375 3.24703125 -1 3 C-0.67 2.01 -0.34 1.02 0 0 Z " fill="#649AB8" transform="translate(125,176)"/>
<path d="M0 0 C5.46737191 1.74807129 10.75824848 3.65794081 16 6 C14.265625 7.1171875 14.265625 7.1171875 12 8 C9.859375 7.3203125 9.859375 7.3203125 7.75 6.125 C7.04359375 5.73570313 6.3371875 5.34640625 5.609375 4.9453125 C5.07828125 4.63335938 4.5471875 4.32140625 4 4 C4 3.34 4 2.68 4 2 C2.02 2 0.04 2 -2 2 C-1.34 1.34 -0.68 0.68 0 0 Z " fill="#689AB8" transform="translate(126,26)"/>
<path d="M0 0 C0.99 0.33 1.98 0.66 3 1 C4.1875 4.0625 4.1875 4.0625 5 7 C2.69 7 0.38 7 -2 7 C-1.125 1.125 -1.125 1.125 0 0 Z " fill="#1771AA" transform="translate(50,113)"/>
<path d="M0 0 C6.68993219 0.53951066 12.63460728 1.88706171 19 4 C17.1875 5.0625 17.1875 5.0625 15 6 C14.01 5.67 13.02 5.34 12 5 C12 4.34 12 3.68 12 3 C10.8553125 3.2784375 10.8553125 3.2784375 9.6875 3.5625 C7 4 7 4 4 3 C2.66893378 2.65772583 1.33599921 2.32248257 0 2 C0 1.34 0 0.68 0 0 Z " fill="#78A8C4" transform="translate(101,19)"/>
<path d="M0 0 C-0.375 2.4375 -0.375 2.4375 -1 5 C-1.99 5.495 -1.99 5.495 -3 6 C-3.99 7.485 -3.99 7.485 -5 9 C-5 8.01 -5 7.02 -5 6 C-5.66 6 -6.32 6 -7 6 C-6.67 4.35 -6.34 2.7 -6 1 C-3.92446352 0.4465236 -2.15634036 0 0 0 Z " fill="#196FA5" transform="translate(48,57)"/>
<path d="M0 0 C5.61 0.33 11.22 0.66 17 1 C17.33 1.99 17.66 2.98 18 4 C11.7945858 3.51679152 6.00054754 2.66681876 0 1 C0 0.67 0 0.34 0 0 Z " fill="#4B8AB2" transform="translate(117,202)"/>
<path d="M0 0 C1.18916016 0.0918457 1.18916016 0.0918457 2.40234375 0.18554688 C4.35275869 0.33829021 6.30159555 0.51095244 8.25 0.6875 C8.25 1.0175 8.25 1.3475 8.25 1.6875 C7.21359375 1.74808594 6.1771875 1.80867187 5.109375 1.87109375 C3.73957127 1.95553371 2.36978025 2.04017997 1 2.125 C-0.02287109 2.18397461 -0.02287109 2.18397461 -1.06640625 2.24414062 C-3.81452265 2.41756545 -6.43474369 2.60764203 -9.109375 3.28515625 C-10.75 3.6875 -10.75 3.6875 -12.75 2.6875 C-8.92901767 -1.30809712 -5.08149365 -0.47612669 0 0 Z " fill="#91B8D0" transform="translate(203.75,170.3125)"/>
<path d="M0 0 C2.475 0.99 2.475 0.99 5 2 C5 2.66 5 3.32 5 4 C2.39491364 3.88608368 -0.20845546 3.75934452 -2.8125 3.625 C-3.55048828 3.5940625 -4.28847656 3.563125 -5.04882812 3.53125 C-8.81893115 3.32653852 -10.79650741 3.13566173 -14 1 C-9.38 1 -4.76 1 0 1 C0 0.67 0 0.34 0 0 Z " fill="#A5C6DA" transform="translate(142,33)"/>
<path d="M0 0 C3.3 0.33 6.6 0.66 10 1 C10 1.33 10 1.66 10 2 C8.35 2 6.7 2 5 2 C5 2.66 5 3.32 5 4 C4.34 4 3.68 4 3 4 C2.67 5.32 2.34 6.64 2 8 C0.23537317 4.91190305 0 3.76687864 0 0 Z " fill="#80AFCC" transform="translate(90,17)"/>
<path d="M0 0 C2.97 0.495 2.97 0.495 6 1 C2.4912812 4.09592835 -0.49197399 5.74194623 -5 7 C-5 6.34 -5 5.68 -5 5 C-4.01 5 -3.02 5 -2 5 C-1.34 3.35 -0.68 1.7 0 0 Z " fill="#4185B2" transform="translate(186,194)"/>
<path d="M0 0 C0.89203125 0.00902344 1.7840625 0.01804687 2.703125 0.02734375 C3.37859375 0.03894531 4.0540625 0.05054687 4.75 0.0625 C4.75 0.3925 4.75 0.7225 4.75 1.0625 C2.77 1.3925 0.79 1.7225 -1.25 2.0625 C-1.25 2.3925 -1.25 2.7225 -1.25 3.0625 C-4.88 3.0625 -8.51 3.0625 -12.25 3.0625 C-8.04248553 0.25749035 -5.00014586 -0.06579139 0 0 Z " fill="#84AEC7" transform="translate(69.25,17.9375)"/>
<path d="M0 0 C1.21236328 0.01353516 1.21236328 0.01353516 2.44921875 0.02734375 C3.37154297 0.04474609 3.37154297 0.04474609 4.3125 0.0625 C3.3225 0.5575 3.3225 0.5575 2.3125 1.0625 C2.3125 1.7225 2.3125 2.3825 2.3125 3.0625 C-0.9875 3.0625 -4.2875 3.0625 -7.6875 3.0625 C-7.6875 2.4025 -7.6875 1.7425 -7.6875 1.0625 C-4.80538698 0.10179566 -2.98899956 -0.04331883 0 0 Z " fill="#1D6A9A" transform="translate(43.6875,108.9375)"/>
<path d="M0 0 C0.86625 0.2784375 0.86625 0.2784375 1.75 0.5625 C4.20692525 1.04023546 5.64397534 0.75729364 8 0 C8 0.99 8 1.98 8 3 C7.34 3.66 6.68 4.32 6 5 C3.73725212 4.64644564 2.04911148 4.02455574 0 3 C0 2.01 0 1.02 0 0 Z " fill="#217EBA" transform="translate(32,136)"/>
<path d="M0 0 C0.99 0.33 1.98 0.66 3 1 C3 1.99 3 2.98 3 4 C3.66 4 4.32 4 5 4 C5 4.99 5 5.98 5 7 C5.99 7.33 6.98 7.66 8 8 C7.67 9.32 7.34 10.64 7 12 C5.82767315 10.3790787 4.6622923 8.75313167 3.5 7.125 C2.8503125 6.22007812 2.200625 5.31515625 1.53125 4.3828125 C0 2 0 2 0 0 Z " fill="#5E9CBE" transform="translate(27,132)"/>
<path d="M0 0 C0 1.65 0 3.3 0 5 C-2.88575819 4.60196439 -3.82189513 4.20990931 -5.75 1.9375 C-6.1625 1.298125 -6.575 0.65875 -7 0 C-4.3333581 -1.33332095 -2.83319697 -0.67102033 0 0 Z " fill="#4796C8" transform="translate(48,27)"/>
<path d="M0 0 C0.99 0.33 1.98 0.66 3 1 C2.67 6.28 2.34 11.56 2 17 C1.67 17 1.34 17 1 17 C0.67 11.39 0.34 5.78 0 0 Z " fill="#3E83A9" transform="translate(71,140)"/>
<path d="M0 0 C0.66 0.33 1.32 0.66 2 1 C1.814375 1.61875 1.62875 2.2375 1.4375 2.875 C0.76313824 5.04160178 0.76313824 5.04160178 2 7 C-0.97 6.505 -0.97 6.505 -4 6 C-4.33 5.01 -4.66 4.02 -5 3 C-2.625 1.4375 -2.625 1.4375 0 0 Z " fill="#5D9BC3" transform="translate(189,174)"/>
<path d="M0 0 C-0.33 1.32 -0.66 2.64 -1 4 C-2.32 4 -3.64 4 -5 4 C-5 3.01 -5 2.02 -5 1 C-5.99 0.67 -6.98 0.34 -8 0 C-5.13822943 -1.43088528 -3.06624227 -0.59991697 0 0 Z " fill="#458EBB" transform="translate(125,176)"/>
<path d="M0 0 C3.59391114 1.33488128 6.75490696 2.96022723 10 5 C8.68 5.33 7.36 5.66 6 6 C6 5.34 6 4.68 6 4 C5.01 4.33 4.02 4.66 3 5 C0.8125 3.5625 0.8125 3.5625 -1 2 C-0.67 1.34 -0.34 0.68 0 0 Z " fill="#70A4C6" transform="translate(100,164)"/>
<path d="M0 0 C-2 3 -2 3 -4.1640625 3.51171875 C-4.97617187 3.56972656 -5.78828125 3.62773437 -6.625 3.6875 C-7.85089844 3.78611328 -7.85089844 3.78611328 -9.1015625 3.88671875 C-9.72804687 3.92410156 -10.35453125 3.96148438 -11 4 C-3.77464789 -1.88732394 -3.77464789 -1.88732394 0 0 Z " fill="#699EBF" transform="translate(56,22)"/>
<path d="M0 0 C0.99 0.66 1.98 1.32 3 2 C2.34 3.98 1.68 5.96 1 8 C-0.32 8 -1.64 8 -3 8 C-3 7.01 -3 6.02 -3 5 C-1.68 4.67 -0.36 4.34 1 4 C0.67 2.68 0.34 1.36 0 0 Z " fill="#4A93C5" transform="translate(69,136)"/>
<path d="M0 0 C0.66 0.66 1.32 1.32 2 2 C1.625 4.125 1.625 4.125 1 6 C-0.32 6.33 -1.64 6.66 -3 7 C-2.625 4.0625 -2.625 4.0625 -2 1 C-1.34 0.67 -0.68 0.34 0 0 Z " fill="#1B6CA1" transform="translate(18,58)"/>
<path d="M0 0 C2.31 0.33 4.62 0.66 7 1 C5.68 1.33 4.36 1.66 3 2 C3.33 3.32 3.66 4.64 4 6 C2.68 6 1.36 6 0 6 C0 4.02 0 2.04 0 0 Z " fill="#539DD0" transform="translate(93,21)"/>
<path d="M0 0 C0.99 0.33 1.98 0.66 3 1 C2.34 2.32 1.68 3.64 1 5 C-1.97 4.505 -1.97 4.505 -5 4 C-4.34 3.34 -3.68 2.68 -3 2 C-2.01 2 -1.02 2 0 2 C0 1.34 0 0.68 0 0 Z " fill="#575757" transform="translate(184,143)"/>
<path d="M0 0 C0.66 0 1.32 0 2 0 C1.42647107 3.87132028 -0.48704352 6.08172796 -3 9 C-3.33 7.35 -3.66 5.7 -4 4 C-3.01 4 -2.02 4 -1 4 C-0.67 2.68 -0.34 1.36 0 0 Z " fill="#4C8DB2" transform="translate(54,44)"/>
<path d="M0 0 C0.66 0.33 1.32 0.66 2 1 C2.33 1.99 2.66 2.98 3 4 C1.35 4.33 -0.3 4.66 -2 5 C-2.33 3.68 -2.66 2.36 -3 1 C-2.01 0.67 -1.02 0.34 0 0 Z " fill="#1974B0" transform="translate(28,43)"/>
<path d="M0 0 C0.66 0.33 1.32 0.66 2 1 C1.64950425 4.24208567 1.43778819 5.61527704 -1.0625 7.8125 C-1.701875 8.204375 -2.34125 8.59625 -3 9 C-3 6 -3 6 -1 4 C-0.3574765 1.93125966 -0.3574765 1.93125966 0 0 Z " fill="#5394BC" transform="translate(204,179)"/>
<path d="M0 0 C0.66 1.32 1.32 2.64 2 4 C1.01 5.485 1.01 5.485 0 7 C-0.66 7 -1.32 7 -2 7 C-2.33 7.99 -2.66 8.98 -3 10 C-2.49287967 6.28111761 -1.88391785 3.26545761 0 0 Z " fill="#508DB1" transform="translate(18,52)"/>
<path d="M0 0 C-1.28813342 0.83878455 -2.58063256 1.67086783 -3.875 2.5 C-4.59429687 2.9640625 -5.31359375 3.428125 -6.0546875 3.90625 C-8 5 -8 5 -10 5 C-10 4.01 -10 3.02 -10 2 C-8.68 2 -7.36 2 -6 2 C-6 1.34 -6 0.68 -6 0 C-3.50907189 -1.24546405 -2.58919267 -0.7767578 0 0 Z " fill="#89B5D1" transform="translate(72,35)"/>
<path d="M0 0 C0.66 0 1.32 0 2 0 C2 0.66 2 1.32 2 2 C2.66 2 3.32 2 4 2 C4 1.34 4 0.68 4 0 C4.99 0.33 5.98 0.66 7 1 C7 1.99 7 2.98 7 4 C5.02 4 3.04 4 1 4 C0.67 2.68 0.34 1.36 0 0 Z " fill="#338EC6" transform="translate(56,32)"/>
<path d="M0 0 C-0.33 1.32 -0.66 2.64 -1 4 C-4.75 5.125 -4.75 5.125 -7 4 C-3.375 0 -3.375 0 0 0 Z " fill="#3190CC" transform="translate(204,180)"/>
<path d="M0 0 C1.98 0.495 1.98 0.495 4 1 C4 2.32 4 3.64 4 5 C2.35 4.67 0.7 4.34 -1 4 C-0.67 2.68 -0.34 1.36 0 0 Z " fill="#555555" transform="translate(182,131)"/>
<path d="M0 0 C0.66 0 1.32 0 2 0 C3.125 5.75 3.125 5.75 2 8 C1.34 8 0.68 8 0 8 C-0.79953138 4.71303767 -1.09658936 3.28976808 0 0 Z " fill="#3388BF" transform="translate(90,179)"/>
<path d="M0 0 C2.64 0.66 5.28 1.32 8 2 C5.42786866 3.61949011 4.32330841 4.04408751 1.25 3.625 C0.5075 3.41875 -0.235 3.2125 -1 3 C-0.67 2.01 -0.34 1.02 0 0 Z " fill="#6DA4BF" transform="translate(125,176)"/>
<path d="M0 0 C1.32 0.33 2.64 0.66 4 1 C3.67 1.99 3.34 2.98 3 4 C2.34 4 1.68 4 1 4 C0.34 4.66 -0.32 5.32 -1 6 C-1.33 4.68 -1.66 3.36 -2 2 C-1.34 2 -0.68 2 0 2 C0 1.34 0 0.68 0 0 Z " fill="#318FCC" transform="translate(42,144)"/>
<path d="M0 0 C1.9375 0.3125 1.9375 0.3125 4 1 C4.33 1.99 4.66 2.98 5 4 C3.35 4.33 1.7 4.66 0 5 C0 3.35 0 1.7 0 0 Z " fill="#0F6EA7" transform="translate(23,119)"/>
<path d="M0 0 C1.65 0 3.3 0 5 0 C4.34 1.32 3.68 2.64 3 4 C1.68 3.67 0.36 3.34 -1 3 C-0.67 2.01 -0.34 1.02 0 0 Z " fill="#439BD3" transform="translate(68,20)"/>
<path d="M0 0 C2.31 0.33 4.62 0.66 7 1 C7 1.99 7 2.98 7 4 C5.35 4 3.7 4 2 4 C2.33 3.01 2.66 2.02 3 1 C2.01 0.67 1.02 0.34 0 0 Z " fill="#1B76B7" transform="translate(104,194)"/>
<path d="M0 0 C-0.66 2.64 -1.32 5.28 -2 8 C-4 6 -4 6 -4.125 3.375 C-4.08375 2.59125 -4.0425 1.8075 -4 1 C-2 0 -2 0 0 0 Z " fill="#489DD3" transform="translate(98,164)"/>
<path d="M0 0 C1.32 0 2.64 0 4 0 C4.33 2.31 4.66 4.62 5 7 C3.29115995 5.37660195 1.62553283 3.70680947 0 2 C0 1.34 0 0.68 0 0 Z " fill="#66A3CA" transform="translate(35,144)"/>
<path d="M0 0 C0.66 0.33 1.32 0.66 2 1 C2.625 3.5625 2.625 3.5625 3 6 C2.01 6.33 1.02 6.66 0 7 C-0.38133299 5.0085944 -0.71325582 3.00720923 -1 1 C-0.67 0.67 -0.34 0.34 0 0 Z " fill="#1274AF" transform="translate(20,55)"/>
<path d="M0 0 C0.66 0.99 1.32 1.98 2 3 C0 6 0 6 -2.125 6.6875 C-2.74375 6.790625 -3.3625 6.89375 -4 7 C-2.79618552 4.50638429 -1.54571278 2.31856917 0 0 Z " fill="#5F97B6" transform="translate(27,38)"/>
<path d="M0 0 C0.33 0.66 0.66 1.32 1 2 C0.34 1.67 -0.32 1.34 -1 1 C-0.67 0.67 -0.34 0.34 0 0 Z M-3 2 C-2.34 2 -1.68 2 -1 2 C-0.67 3.98 -0.34 5.96 0 8 C-0.99 8 -1.98 8 -3 8 C-3 6.02 -3 4.04 -3 2 Z " fill="#1976B1" transform="translate(53,40)"/>
</svg>
